<svg xmlns="http://www.w3.org/2000/svg" viewBox="0 0 959 593">
<g fill="none" stroke="rgba(255,255,255,0.35)" stroke-width="0.8">
<path d="m 643,467 .4,-7 -.9,-1 -2,-.7 -2,-3 .5,-3 49,-5 -.7,-2 -2,-2 -.5,-1 .6,-6 -2,-6 .5,-3 .3,-4 2,-4 -.2,-1 -2,-1 v -3 l -2,-2 -3,-6 -13,-46 -46,4 1,2 -1,67 4,33 .9,-.5 1,.1 .6,.4 .8,-.1 2,-4 v -2 l 1,-1 1,.5 3,6 v .9 l -3,2 4,-.4 5,-2 z"/>
<path d="m 140,388 3,-2 .8,-2 -1,-2 -2,-.2 -1,-2 1,-7 2,-.3 2,-3 2,-7 2,-4 5,-2 1,-1 -.4,-2 -2,-2 -1,-6 -1,-2 -1,-3 .9,-2 1,-3 .5,-3 -.5,-5 1,-14 4,-.6 4,1 1,3 h 2 l 2,-3 3,-18 46,8 40,6 -17,124 -37,-5 -64,-38 .5,-3 2,-2 z"/>
<path d="m 584,367 .9,-2 1,.5 .7,-1 -.8,-.7 .3,-2 -1,-.9 .6,-1 -.1,-2 -1,-.1 .8,-.8 1,.8 .3,-1 -.4,-1 .1,-.7 2,.6 -.4,-2 2,-1 -.5,-.9 -1,.1 -.6,-.9 .9,-.9 2,-.2 .5,-.8 1,-.2 -.1,-.8 -.9,-.9 v -.5 h 2 l .4,-.7 -1,-1 -.1,-.6 -11,.8 3,-5 2,-2 v -2 l -2,-2 -40,2 -39,.7 4,24 -.7,39 3,2 3,-1 3,.8 .2,12 52,-1 1,-2 .5,-3 -2,-2 -.5,-2 .9,-.7 v -.8 l -2,-1 -.1,-.7 2,-.9 -1,-1 2,-7 3,-2 v -.8 l -1,-1 3,-5 h 2 l 2,-1 -.3,-5 3,-4 2,-.6 -.5,-3 z"/>
<path class="ca" d="m 69,366 3,5 -1,.1 -2,-2 z m 2,-10 2,4 3,1 .7,-.6 -1,-2 -3,-2 z m -20,-19 v 2 l 2,1 4,-.2 1,-1 -3,-.2 z m -6,.1 3,.5 1,2 h -4 z m 48,46 -1,-3 .2,-3 -.4,-8 -2,-5 -1,-1 -.6,-2 -7,-9 -4,.1 -2,-2 1,-2 -.7,-4 -2,-1 -4,-.6 -3,-1 -2,-2 -4,-7 -3,-2 -4,-.5 -3,-2 -5,-2 -3,-.3 -2,-2 .2,-3 .8,-5 2,-5 -1,-2 -4,-9 -3,-4 -.4,-3 -2,-2 .2,-2 -2,-5 -3,-3 .6,-7 2,-.8 2,-3 -.4,-3 -1,-.9 h -2 l -2,-3 -2,-4 v -8 l 1,-4 .2,-2 2,.2 -.1,2 -.8,.7 v 2 l 4,3 v -5 l -1,-3 .5,-1 -1,-2 3,-2 -2,-3 -1,.5 -2,4 .5,1 -.8,1 -.9,-.1 -5,-6 .7,-6 -1,-4 -6,-13 .8,-11 2,-4 .2,-6 -6,-11 .3,-5 7,-8 2,-2 -.1,-1 4,-9 .1,-8 .9,-2 66,19 -16,63 1,4 70,105 -.9,2 1,3 1,2 1,6 2,2 .4,2 -1,1 -5,2 -2,4 -2,7 -2,3 -2,.3 -1,7 1,2 2,.2 1,2 -.8,2 -3,2 -2,-.1 z" fill="rgba(220,38,38,0.12)" stroke="rgba(220,38,38,0.6)" stroke-width="1.2"/>
<path d="m 375,323 -16,-1 -52,-5 -53,-6 12,-88 45,6 38,3 33,2 -1,22 z"/>
<path d="m 874,179 .4,-1 -3,-12 -.1,-.3 -15,3 v .7 l -.9,.3 -.5,-.7 -10,2 3,16 2,2 -4,3 2,2 5,-4 2,-1 h .8 l 2,-3 1,.1 3,-1 h 2 l 5,-3 3,-.9 1,-1 2,.5 z"/>
<path d="m 822,227 -2,.3 -2,1 -1,2 8,27 11,-2 -2,-8 -1,.5 -3,-3 -.5,-2 -2,-1 -.2,-4 -2,-2 -1,-.8 -1,-1 -.4,-3 .3,-2 1,-2 z"/>
<path d="m 752,445 -4,-.7 -2,-.9 -2,1 v 2 l 1,2 -.5,4 -2,.6 -1,-1 -.6,-3 -50,3 -3,-6 -49,5 -.5,3 2,3 2,.7 .9,1 -.4,7 -1,.6 .5,.4 1,-.3 .7,-.8 10,-3 9,-.5 8,2 8,5 2,.8 2,2 -.1,3 h 2 l 2,-1 2,.1 2,-.8 3,-2 3,-3 1,-.4 .6,.5 h 1 l .5,-.8 -.5,-1 -.6,-.6 .2,-.8 2,-1 5,-.4 .8,1 1,.1 2,1 3,2 1,2 1,1 3,1 v 2 l 3,2 1,.1 2,1 .7,2 1,.2 .8,2 .7,.6 1,-1 3,.1 .5,1 1,.9 v 1 l 3,2 .2,10 -2,6 1,1 -.2,3 -.8,1 .7,1 2,2 .3,2 .8,1 -.4,-2 1,-.6 .8,-4 -3,-1 .1,-.6 3,-.4 .9,3 1,.6 .1,-2 1,.3 .6,.8 -.1,.7 -3,4 -.2,1 -2,2 v 1 l 4,4 5,8 2,2 v 2 l 3,5 2,.6 .7,-1 -2,.3 -3,-4 .2,-1 2,-.8 v -2 l -.6,-1 .9,-.9 .4,.9 .7,.5 v 4 l -1,-.6 -.8,.9 1,2 1,3 1,-.6 2,1 2,2 2,5 3,5 .8,-1 3,-.5 3,1 .3,2 3,4 .1,1 2,3 -.7,.5 v 3 l 3,1 h 2 l 3,-2 2,.3 1,.4 2,-2 .2,-.7 1,.3 2,-2 1,-2 -.7,-3 -.2,-1 1,-4 .6,-.2 .6,2 .8,-2 -.8,-7 -.4,-10 -1,-7 -.7,-2 -7,-11 -5,-9 -2,-3 -1,-4 -.2,-3 .9,-.3 v -.9 l -1,-2 -4,-4 -8,-10 -6,-10 -4,-11 -.6,-4 -1,-1 -.5,-4 z m 9,134 2,-.1 -.7,-1 z m 7,-1 v -.7 l 2,-.2 4,-3 2,-.6 2,-.9 .3,1 2,.8 -3,1 h -2 l -4,2 z m 17,-8 -3,1 -1,1 1,.1 z m 4,-3 -1,.3 -1,2 1,-.2 2,-2 z m 8,-16 -2,6 -.8,1 -1,3 -1,2 -.7,2 -2,2 v .9 l 3,-3 2,-4 .6,-2 2,-5 z"/>
<path d="m 762,414 v 1 l -4,6 -1,.2 2,.5 v 2 l -.9,1 -.6,6 -2,6 .5,2 .7,5 -4,.3 -4,-.7 -2,-.9 -2,1 v 2 l 1,2 -.5,4 -2,.6 -1,-1 -.6,-3 -50,3 -3,-6 -.7,-2 -2,-2 -.5,-1 .6,-6 -2,-6 .5,-3 .3,-4 2,-4 -.2,-1 -2,-1 v -3 l -2,-2 -3,-6 -13,-46 23,-3 21,-3 -.1,2 -2,1 -1,3 .2,1 6,4 3,-.3 3,4 .4,2 4,5 3,2 1,.2 2,2 1,2 2,2 2,.5 3,3 .1,1 3,3 5,2 4,7 .3,3 4,2 2,5 .8,3 4,.4 z"/>
<path d="m 165,183 -24,-5 8,-37 3,-6 .4,-2 .8,-.9 -.9,-2 -3,-1 .2,-4 4,-6 2,-.8 2,-2 -.1,-2 2,-2 3,-6 4,-5 -.5,-3 -4,-3 -2,-4 1,-4 -.7,-4 13,-56 14,3 -5,22 4,7 -2,5 4,5 2,.7 4,8 v 2 l 2,3 h .9 l 1,2 h 3 v 2 l -7,17 -.5,4 1,.5 2,3 3,-1 4,-2 2,2 .5,2 -.5,3 2,10 3,4 2,1 .4,3 v 4 l 2,2 2,-2 7,2 2,-1 9,2 3,-3 2,-.6 1,2 2,4 .9,.1 -8,55 -48,-8 z"/>
<path d="m 624,266 -1,5 v 2 l 2,4 v .7 l -.3,.9 .9,2 -.3,2 -2,2 -1,4 -4,5 -.1,7 h -1 l .9,2 v .9 l -2,3 .1,1 2,2 -.1,.9 -4,.6 -.6,1 -1,-.6 -1,.5 -.4,3 2,2 -.4,2 -2,.3 -7,-3 -4,4 .3,2 h -3 l -1,-2 -2,-4 v -2 l .8,-.6 .1,-1 -2,-2 -.9,-2 -3,-4 -5,-1 -7,-7 -.4,-2 3,-8 -.4,-2 1,-1 v -1 l -3,-2 -3,-.7 -3,1 -1,-2 .6,-2 -.7,-2 -9,-8 -2,-2 -2,-6 -1,-5 1,-4 .7,-.7 .1,-2 -.7,-.9 1,-2 2,-.6 .9,-.3 1,-1 v -2 l 2,-2 .5,-.5 .1,-4 -.9,-1 -1,-.3 -1,-2 1,-4 3,-.8 h 2 l 4,-2 2,-2 .1,-2 1,-1 1,-3 -.1,-3 -3,-4 h -1 l -.9,-1 .2,-2 -2,-2 -2,-1 .5,-.6 46,-3 .1,5 3,5 1,4 2,3 z"/>
<path d="m 629,215 -5,2 -5,-1 4,50 -1,5 v 2 l 2,4 v .7 l -.3,.9 .9,2 -.3,2 -2,2 -1,4 -4,5 -.1,7 h -1 l .9,2 1,.8 .6,-1 -.7,-2 5,-.5 .2,1 1,.2 .4,-.9 -.6,-1 .3,-.8 1,.8 2,-.4 2,.6 3,2 2,-3 4,-2 3,3 2,-2 .3,-3 4,-2 .2,1 2,1 3,-.2 1,-.7 .1,-3 2,-4 5,-4 -.1,-2 1,-4 2,1 7,-4 -.4,-2 -2,-2 1,-2 -7,-57 -.1,-1 -32,3 z"/>
<path d="m 557,183 2,2 .6,1 -2,3 -.1,2 2,6 3,2 3,.7 1,3 -.5,.6 2,1 2,2 -.2,2 .9,1 h 1 l 3,4 .1,3 -1,3 -1,1 -.1,2 -2,2 -4,2 h -2 l -3,.8 -1,4 1,2 1,.3 .9,1 -.1,4 -.5,.5 -2,2 v 2 l -1,1 -.9,.3 -2,.6 -1,2 .7,.9 -.1,2 -.7,.7 -2,-.8 -1,-1 -.6,-2 -2,-1 -14,.8 -27,1 -26,-.1 -2,-4 .7,-2 -.8,-3 .2,-3 -1,-.7 -.4,-6 -3,-5 -.2,-4 -2,-4 -1,-4 v -1 l -.6,-2 v -2 l -.5,-.9 -.7,-2 -.3,-1 -1,-1 1,-4 2,-5 -.7,-2 -1,-.4 -.4,-2 1,-.5 .1,-1 -1,-2 .1,-2 2,.1 h 28 l 36,-.9 19,-.7 z"/>
<path d="m 459,260 -44,-1 -36,-2 -5,67 68,3 62,.1 -.5,-48 -3,-.7 -3,-5 -2,-2 .5,-2 3,-3 .1,-1 -2,-2 -.9,1 -2,-.6 -3,-3 z"/>
<path d="m 692,322 -20,1 -5,.8 -17,1 -3,.8 -23,2 -.7,-.6 h -4 l 1,3 -.6,.9 -23,2 1,-3 1,.9 .7,-.4 1,-4 -1,-1 1,-2 .2,-.9 -1,-.8 -.3,-2 4,-4 7,3 2,-.3 .4,-2 -2,-2 .4,-3 1,-.5 1,.6 .6,-1 4,-.6 .1,-.9 -2,-2 -.1,-1 2,-3 0,-.9 1,.8 .6,-1 -.7,-2 5,-.5 .2,1 1,.2 .4,-.9 -.6,-1 .3,-.8 1,.8 2,-.4 2,.6 3,2 2,-3 4,-2 3,3 2,-2 .3,-3 4,-2 .2,1 2,1 3,-.2 1,-.7 .1,-3 2,-4 5,-4 -.1,-2 1,-4 2,1 7,-4 -.4,-2 -2,-2 1,-2 1,.5 2,.1 2,-.8 3,1 2,3 v 1 l 4,.7 2,-.2 2,2 2,.2 v -1 l 2,-.8 3,.8 1,.8 1,-.7 h .9 l .6,-2 3,-2 .5,.8 .8,3 4,1 1,2 -.1,1 .6,1 -.6,4 2,2 .8,1 1,.6 -.1,.9 4,6 h 1 l 2,2 1,.3 1,-.1 -5,7 -3,1 -3,3 -.4,2 -2,1 -.1,2 -1,1 -2,.5 -.5,2 -1,.4 -7,4 z m -98,11 -.7,-.7 .2,-1 h 1 l .7,.7 -.3,1 z"/>
<path d="m 602,473 -1,-2 .3,-1 -5,-7 .9,-5 1,-1 .1,-1 -36,2 2,-12 2,-5 6,-8 -2,-2 h 2 v -3 l -2,-2 .5,-2 -1,-1 -2,-7 .6,-1 -52,1 .5,20 .7,3 3,3 .7,5 4,5 .8,4 h 1 l -.1,7 -3,6 1,2 -1,2 .7,3 -.1,4 -2,4 -.1,.8 -2,1 1,2 1,1 2,-1 5,-.9 6,-.1 10,4 8,1 2,-1 2,-.2 5,2 2,-.4 1,-2 -4,-2 -2,1 -1,-.2 -1,-2 3,-2 2,-.1 v 2 l 2,-.1 3,-.3 .4,2 1,.4 .6,2 5,1 2,2 v .7 h -1 l -2,2 2,1 5,1 3,3 4,-1 -4,.2 -.1,-.6 3,-.7 .2,-2 1,-.3 v -1 l 1,.1 v 2 l 2,.1 .8,-2 .9,.3 .2,2 1,.2 -2,2 3,-.9 2,-1 3,-3 h -.7 l -1,1 -.4,-.1 -.5,-.8 .9,-1 v -2 l 1,-.8 .7,.7 1,-.8 1,-.1 .6,1 -.6,2 h 2 l 5,2 .5,1 2,1 3,.1 1,.7 2,-1 .9,-2 v -2 h -1 l -1,-1 -1,-1 -3,-.9 -3,.2 -4,-2 v -2 l 1,-1 2,.6 -3,-2 .2,-.8 h 4 l 3,-4 -3,-2 .8,-2 -1,-.8 h -.8 l -2,2 v 2 l -.6,.7 -1,-.1 -2,-1 h -1 v -2 l .6,-.7 .8,.7 2,-2 .7,-2 .8,-.3 z m -10,-3 2,1 .8,1 2,.1 2,.8 .2,1 -.4,.6 -.9,-2 -1,1 -.9,1 -3,.8 -2,.1 -4,-1 .1,-2 2,-2 1,-2 z m -5,1 v 1 l -2,2 h -1 v -2 l 2,-2 z"/>
<path d="m 875,129 .6,4 3,2 .8,2 2,1 1,-.3 1,-3 -.8,-3 2,-.9 .5,-3 -.6,-1 3,-2 -2,-2 .9,-2 1,-2 .5,3 2,-2 1,.9 1,-.8 v -2 l 3,-1 .3,-3 2,-.2 3,-4 v -.7 l -.9,-.5 -.1,-3 .6,-1 .2,2 1,-.5 -.2,-3 -.9,.3 -.1,1 -1,-1 .9,-1 .6,.1 1,-.4 .5,3 2,-.3 3,.7 v -1 l -1,-1 1,.1 .1,-2 .6,.8 .3,2 2,2 .2,-1 .9,-.2 -.3,-.8 .8,-.6 -.1,-2 -2,-.2 -2,.7 1,-2 .7,-.8 1,-.2 .4,1 2,2 .4,-2 2,-1 -.9,-1 .1,-2 1,.5 h .7 l 2,-1 .4,-2 2,.3 .1,-.7 .2,-2 .5,1 2,-1 2,-4 -.1,-2 -1,-2 -3,-3 h -2 l -.8,2 -3,-3 .3,-.8 v -2 l -2,-4 -.8,-.2 -.7,.4 h -5 l -.3,-4 -8,-26 -7,-4 -3,-.1 -7,7 -3,-1 -1,-4 h -3 l -7,20 .7,6 -2,2 -.4,5 1,4 .8,.2 v 2 l -2,4 -2,1 -1,2 -.4,8 -2,-1 -2,.4 z m 35,-25 -1,.8 v 1 l .7,-.8 .9,.8 .4,-.5 1,.2 -1,-.8 .4,-.8 z m -2,3 -1,1 .5,.4 -.1,1 h 1 v -2 z m -3,-2 .9,1 1,.5 .3,-1 v -2 l -1,-.7 -.4,1 z m -1,5 -2,-2 2,-2 .8,.3 .2,1 1,.8 v 1 l -1,1 z"/>
<path d="m 823,269 0,-2 h -.8 l 0,2 z m 12,-4 1,-2 .1,-2 -.6,-.6 -.7,.9 -.2,2 -.8,1 -.3,1 -5,2 -.7,.8 -1,.2 -.4,.9 -1,.6 -.3,-2 .4,-.7 -.8,-.5 .2,-2 -2,1 v -2 l 1,-.3 -2,-.4 -.7,-.8 .4,-1 -.8,-.6 -.7,2 .5,.8 -.7,.6 -1,.5 -2,-1 -.2,-1 -1,-1 -1,-2 2,-.8 -1,-.6 v -.9 l .6,-1 2,-.3 -1,-.6 -.1,-.7 -1,-.1 -.4,1 -.6,.3 .1,-3 1,-1 .8,.7 .1,-2 -1,-.9 -.9,1 -1,1 -.6,-1 .2,-2 .9,-1 .9,.9 1,-.7 -.4,-2 -1,1 -.9,-2 -.2,-2 1,-2 1,-1 1,-.2 -.5,-.8 .5,-.6 -.3,-.7 .2,-2 -2,.4 -.8,1 1,1 -3,4 -.9,-.4 -.7,.9 -.6,2 -2,.5 1,.6 1,1 -.2,.7 .9,1 -1,1 .5,.3 -.5,1 v 2 l -.5,1 .9,1 .7,3 1,1 2,1 .4,3 2,2 .4,1 v 1 h -.7 l -2,-1 -.4,.2 -1,-.2 -2,-1 -1,-.3 -1,.5 -1,-.3 -.4,.2 -2,-.8 -1,-1 -1,-1 -.6,-.2 -.8,.7 -2,1 -1,-.8 -.4,-2 .8,-2 -.3,-.5 .3,-.4 -.7,-1 1,-.1 1,-.9 .4,-2 2,-3 -3,-2 -1,2 -.6,-.6 h -1 l -.6,-.1 -.4,-.4 .1,-.5 -2,-.6 -.8,.3 -1,-.1 -.7,-.7 -.5,-.2 -.2,-.7 .6,-.8 v -.9 l -1,-.2 -1,-.9 -.9,.1 -2,-.3 -.9,-.4 .2,-2 -1,-.5 -.2,-.7 h -.7 l -.8,-1 .2,-1 -3,.4 -2,-2 -1,.3 -.9,1 h -1 l -2,3 -3,.4 -2,-1 -3,4 -2,-.3 -3,4 -.9,2 -2,2 -2,-11 60,-12 8,27 11,-2 0,5 -.1,3 -1,2 z m -13,-2 -1,.9 .8,2 2,.8 -.4,-2 z"/>
<path d="m 900,174 h 3 l .9,-.6 .1,-1 -2,-2 .4,1 -2,2 h -2 l .1,.8 z m -9,2 -1,-.6 1,-.8 .6,-2 1,-1 .8,-.2 .6,.9 1,.2 .6,-.6 .5,2 -1,.3 -3,.7 z m -35,-23 18,-4 1,-2 .3,-2 2,-.6 .5,-1 2,-1 1,.3 2,3 1,.4 1,-1 .8,1 v 1 l -3,2 .2,.8 -.9,1 .4,.8 -1,.3 .9,1 -.8,.7 .6,1 .9,-.2 .3,-.8 1,.6 h 2 l 2,3 .2,3 2,.1 .8,1 .6,2 1,.7 h 2 l 2,-.1 .8,-.9 2,-1 1,-.3 -1,-2 -.3,.9 -2,-4 h -.8 l -.4,.9 -1,-1 1,-1 2,.4 2,2 1,3 1,3 -1,3 v -2 l -.7,-1 -4,2 -.9,-.3 -2,1 -.1,1 -2,1 -2,2 -2,2 h -1 l 3,-3 .5,-2 -.5,-.6 -.3,-1 -.9,-.1 -.1,1 -1,1 h -1 l -.3,1 .4,1 -1,1 -1,-.2 -.4,1 -1,-3 -1,-1 -3,-1 -.6,-2 h -.8 l -.7,-3 -6,2 -.1,-.3 -15,3 v .7 l -.9,.3 -.5,-.7 -10,2 -.7,-1 .5,-15 z"/>
<path d="m 663,210 .1,1 21,-4 .5,-1 4,-6 v -4 l .8,-2 2,-.8 2,-8 1,-.5 1,.6 -.2,.6 -1,.8 .3,.9 .8,.4 2,-1 .4,-10 -2,-2 -1,-4 v -2 l -2,-4 v -2 l -1,-3 -2,-3 -3,-1 -5,3 -2,5 -.2,.9 -3,4 -2,-.2 -3,-3 -.1,-3 2,-2 2,-.2 1,-2 .2,-4 .8,-.8 1,-.1 .9,-2 -.2,-10 -.3,-1 -1,-1 -2,-1 -.1,-2 .7,-.6 2,.8 -.3,-2 -2,-3 -.7,-2 -1,-1 h -2 l -8,-3 -1,-2 -3,-.3 -1,.3 -4,-2 h -1 l .5,1 -3,-.1 .1,.6 .6,.6 -2,2 .1,2 2,2 2,.2 v .6 l -2,.5 -2,-.1 -3,2 .1,2 .4,6 -2,3 .8,-4 -.8,-.6 -.9,5 -1,-2 .5,-2 -.5,-1 .6,-1 -.6,-1 1,-1 v -1 l -1,.6 -1,3 -.7,.7 -1,2 -2,-.2 -.1,1 h -2 l .2,2 .2,2 -3,1 .1,1 1,2 -.1,5 -1,4 -2,2 1,1 .8,4 -1,2 -.2,2 2,3 2,5 1,2 2,7 -.1,9 -.9,4 -2,3 -.9,4 -2,3 -1,1 z m -96,-97 3,4 17,4 1,1 4,.8 .7,.5 3,-.2 5,.8 1,2 -1,1 .8,.8 4,.7 1,1 .1,4 -1,3 2,.1 1,-.8 .9,.8 -1,3 1,2 1,.3 .8,-2 3,-5 2,-6 2,-2 -.5,-2 .5,-.9 1,2 -.3,2 3,-2 .2,-2 2,.6 .8,-2 .7,.6 -.7,2 -1,.5 -1,2 1,2 1,-.5 -.5,-.7 1,-2 2,-2 h .8 l .2,-3 2,-2 8,-.5 2,-3 4,-.3 4,1 4,3 .7,-.2 -.2,-4 .7,-.2 4,1 2,-.2 3,-.7 2,.4 2,.1 v -1 l -.7,-.9 -2,-.2 -1,-.8 .5,-1 -.8,-.3 -3,.1 -.1,-1 1,-.8 .6,.8 .5,-2 -.7,-.7 .7,-.2 -1,-1 .3,-1 .1,-2 h -1 l -2,1 -2,.1 -.5,2 -2,.2 -.3,-1 -2,.1 -1,1 -.7,-.1 -.2,-.8 -3,.4 -.1,-5 1,-2 -.7,-.1 -2,1 h -2 l -4,3 -6,.3 -4,.8 -2,2 -1,1 -2,2 -.3,.8 -.6,-2 -1,-.6 v .6 l .7,.7 v 1 l -2,-.6 h -.6 l -.3,1 -2,-2 -1,-.2 -1,2 -3,-.1 -.5,-1 -2,-2 -1,-2 v -.7 l -1,-1 -3,-1 -3,-.1 -1,-.9 h -1 l -.7,.4 -2,2 -.7,1 -1,-.7 .2,-1 .8,-2 3,-5 .8,-.2 2,-2 .7,-2 3,-.6 .8,-.6 -.1,-1 -.5,-.5 -4,.2 -2,.5 -3,1 -1,1 -2,2 -2,1 -3,3 -.4,2 -7,5 -4,.5 -2,.4 -2,3 -2,.7 -4,2 z m 101,4 4,.1 .6,-.5 -.2,-2 -2,-2 -2,.1 -.1,.5 1,.4 -2,.8 -.3,1 -.6,-.6 -.4,.8 z m -75,-42 -2,.2 -3,2 -7,5 .8,1 2,.3 3,-2 -1,-.5 2,-2 h 1 l 3,-2 -.1,-.9 z m 41,63 v 1 l 2,2 -.2,-2 z m -.7,3 1,.1 v .9 h -1 z m 21,-21 v .9 l .8,-.2 v -.5 z m 5,3 -.1,-1 -2,-.2 -.6,-.4 h -.9 l -.4,.3 .9,.4 1,1 z m -18,1 -.1,1 -.3,.7 .2,2 .4,.3 .7,.1 .5,-.9 .1,-2 -.3,-.6 -.1,-1 z"/>
<path d="m 465,69 -1,3 .8,1 -.3,5 -.5,1 3,9 1,2 .7,14 1,3 -.4,6 3,7 .3,6 -.1,2 -.1,2 -.9,2 -3,2 -.3,1 2,2 .4,2 3,.6 2,2 -.2,40 h 28 l 36,-.9 19,-.7 -1,-4 -.2,-3 -2,-3 -3,-.7 -5,-4 -.6,-3 -6,-3 -.2,-1 h -3 l -2,-3 -2,-1 .7,-5 -.9,-2 .5,-5 1,-2 -.3,-3 -1,-1 -2,-.3 v -2 l 3,-6 6,-4 -.4,-13 .9,.4 .6,-.5 .1,-1 .9,-.6 1,1 .7,-.1 v 0 l -1,-2 4,-3 3,-4 2,-.8 5,-6 6,-6 4,-2 6,-3 8,-4 -.6,-.4 -4,.7 -3,.1 -1,-2 -1,-.9 -10,1 -1,-3 -2,-.1 -2,.8 -4,3 h -4 l -2,-1 -.3,-2 -4,-.8 -.6,-2 -.7,-1 -1,.9 -3,.1 -10,-6 h -3 l -.8,-.7 -3,1 -.8,1 -3,.8 -1,-.2 v -2 l -.7,-.9 h -6 l -.4,-1 h -3 l -1,.4 -2,-2 .3,-1 -.6,-2 -.7,-1 -.2,-3 -1,-3 -2,-2 h -3 l .1,8 -31,-.4 z"/>
<path d="m 624,469 -5,.1 -2,-2 -8,2 -.9,-.7 -.5,.2 -.1,2 -.6,.1 -3,3 -.7,-.1 -.6,-.7 -1,-2 .3,-1 -5,-7 .9,-5 1,-1 .1,-1 -36,2 2,-12 2,-5 6,-8 -2,-2 h 2 v -3 l -2,-2 .5,-2 -1,-1 -2,-7 .6,-1 1,-2 .5,-3 -2,-2 -.5,-2 .9,-.7 v -.8 l -2,-1 -.1,-.7 2,-.9 -1,-1 2,-7 3,-2 v -.8 l -1,-1 3,-5 h 2 l 2,-1 -.3,-5 3,-4 2,-.6 -.5,-3 38,-3 1,2 -1,67 4,33 z"/>
<path d="m 555,249 -1,-1 -.6,-2 -2,-1 -14,.8 -27,1 -26,-.1 1,1 -.3,1 2,4 4,6 3,3 2,.6 .9,-1 2,2 -.1,1 -3,3 -.5,2 2,2 3,5 3,.7 .5,48 .2,11 39,-.7 40,-2 2,2 v 2 l -2,2 -3,5 11,-.8 1,-2 1,-.5 v -.7 l -1,-1 -.6,-1 2,.2 .8,-.7 -1,-2 1,-.5 .1,-1 -.6,-1 v -1 l -.7,-.7 .2,-1 h 1 l .7,.7 -.3,1 .8,.7 .8,-1 1,-3 1,.9 .7,-.4 1,-4 -1,-1 1,-2 .2,-.9 -1,-.8 h -3 l -1,-2 -2,-4 v -2 l .8,-.6 .1,-1 -2,-2 -.9,-2 -3,-4 -5,-1 -7,-7 -.4,-2 3,-8 -.4,-2 1,-1 v -1 l -3,-2 -3,-.7 -3,1 -1,-2 .6,-2 -.7,-2 -9,-8 -2,-2 -2,-6 -1,-5 1,-4 z"/>
<path d="m 247,130 57,8 51,5 2,-21 5,-67 -54,-6 -54,-8 -66,-12 -5,22 4,7 -2,5 4,5 2,.7 4,8 v 2 l 2,3 h .9 l 1,2 h 3 v 2 l -7,17 -.5,4 1,.5 2,3 3,-1 4,-2 2,2 .5,2 -.5,3 2,10 3,4 2,1 .4,3 v 4 l 2,2 2,-2 7,2 2,-1 9,2 3,-3 2,-.6 1,2 2,4 .9,.1 z"/>
<path d="m 402,191 38,2 3,3 2,.2 2,2 2,-.1 2,-2 2,.6 1,-.7 .7,.5 .9,-.4 .7,.4 .9,-.4 1,.5 1,-.6 2,.6 .6,1 6,2 1,1 .9,3 2,.7 2,-.2 .5,.9 v 2 l .6,2 v 1 l 1,4 2,4 .2,4 3,5 .4,6 1,.7 -.2,3 .8,3 -.7,2 2,4 1,1 -.3,1 2,4 4,6 h -32 l -44,-1 -36,-2 1,-22 -33,-2 4,-44 z"/>
<path d="m 168,297 -3,18 -2,3 h -2 l -1,-3 -4,-1 -4,.6 -1,14 .5,5 -.5,3 -1,3 -70,-105 -1,-4 16,-63 47,11 24,5 23,5 z"/>
<path d="m 863,94 -1,.1 -1,-1 -2,1 -.5,6 1,2 -1,4 2,3 -.4,2 .1,1 -1,2 -1,.4 -.6,1 -2,1 -.7,2 1,3 -.5,2 .5,2 -1,2 .4,2 -1,2 .2,2 -.7,1 .7,4 .7,2 -.5,3 .9,2 -.2,2 -.5,1 -.1,1 2,3 18,-4 1,-2 .3,-2 2,-.6 .5,-1 2,-1 1,.3 .8,-5 -2,-1 -.8,-2 -3,-2 -.6,-4 -12,-37 z"/>
<path d="m 842,195 -15,-5 -2,2 .1,2 -3,5 2,2 -.7,2 -1,1 .5,4 3,.9 1,3 2,1 4,3 -3,3 -2,2 -2,3 -2,.6 -1,2 -1,2 -.3,2 .8,.9 .4,2 1,.6 2,2 2,.8 2,.8 .1,1 .8,.1 1,-1 .8,.4 2,.2 -.2,3 .2,2 2,-.7 2,-4 2,-5 3,-3 .6,-4 -.6,-1 2,-3 v -1 l -.7,-1 1,-3 -.3,-4 -.6,-8 -1,-1 v 1 l .5,.6 h -1 l -.6,-.4 -1,-.2 -.9,.6 -1,-2 .7,-2 v -1 l 2,-.7 .8,-2 z"/>
<path d="m 358,333 h -.8 l -8,99 -32,-3 -34,-4 -.3,3 2,2 -31,-4 -1,10 -16,-2 17,-124 53,6 52,5 z"/>
<path d="m 873,182 -1,.1 -.5,1 z m -31,23 .7,.6 1,-.3 1,.3 .9,-1 h 2 l 2,-.9 5,-2 -.5,-.5 -2,.8 -2,.9 .2,-.8 3,-1 .8,-1 1,.1 4,-2 v .7 l -4,3 4,-3 2,-2 2,-.1 4,-3 3,-3 3,-2 1,-1 -2,-.1 -1,1 -.2,.7 -.9,.7 -.8,-1 -2,1 -.1,.9 -.9,-.2 .5,-.9 -1,-.7 -.6,.9 .9,.3 .2,.5 -.3,.5 -1,3 h -2 l .9,-2 .9,-.6 .3,-2 1,-2 .9,-.8 2,-.7 -1,-.2 -.7,.9 h -.7 l -1,.8 -.2,1 -2,2 -.4,.9 -1,.9 -8,2 .2,.9 -.9,.7 -2,.3 -1,-.6 -.2,1 -1,-.4 .1,1 -1,-.1 -1,.5 -.2,1 h -1 l .2,1 h -.7 l .2,1 -2,.4 -2,2 z m -.8,-.4 -2,.4 v 1 l -.7,2 .6,.7 2,-2 -.1,-.9 z m -10,-95 -.6,2 1,.9 -.4,2 .5,3 2,2 -.4,2 .6,2 -.4,1 -.3,4 3,7 -.8,2 .9,2 .9,-2 2,2 3,14 -.5,2 1,1 -.5,15 .7,1 3,16 2,2 -4,3 2,2 -1,3 -2,2 -2,2 -.2,-.7 .4,-6 -15,-5 -2,-1 -2,.3 -3,-2 -3,-6 h -2 l -.4,-2 -2,-1 -70,14 -.8,-6 4,-4 .6,-2 4,-2 .6,-2 2,-2 .8,-1 -2,-3 -2,-.5 -2,-3 -.2,-3 8,-4 8,-2 h 4 l 3,2 .9,-.1 2,-2 3,-.7 h 3 l 3,-1 2,-3 2,-3 2,-.4 1,-.5 .4,-3 -1,-3 -1,-.7 2,-1 -.1,-2 h -2 l -2,-1 -.1,-3 6,-6 .7,-2 4,-6 6,-6 2,-2 2,.1 21,-5 z"/>
<path d="m 829,300 -29,6 -39,7 -29,4 v 5 l -2,-.1 -1,1 -2,5 -3,-1 -4,2 -.7,2 -2,1 -.8,-.8 -.1,-2 -.8,-.2 -4,3 -.6,3 -5,2 -.5,1 -3,3 -4,.5 -5,3 -.8,4 -1,.9 -2,-.1 -1,1 -.1,5 21,-3 4,-2 1,-.1 7,-4 23,-2 .4,.5 -.2,1 .7,.3 1,-2 3,3 .1,3 20,-3 24,17 4,-2 3,-.7 h 2 l 1,1 .8,-2 .6,-5 2,-4 5,-6 4,-4 5,-2 2,-.4 1,.4 .7,1 3,-7 3,-5 -.7,-.3 -4,7 -.5,-.8 2,-2 -.4,-2 -2,-.5 1,1 -1,.1 -1,-2 -1,2 -2,.2 1,-3 .7,-2 -.2,-3 -2,-.1 .9,-.9 1,.3 3,.1 .8,-.5 h 2 l 2,-2 .2,-3 1,-1 1,-.2 1,-1 -.5,-4 -2,-4 -3,-.2 -.9,2 -.5,-1 -3,.2 -1,.4 -2,1 -.3,-.4 h -.9 l -2,1 -3,.5 v -1 l .8,-1 1,.7 h 1 l 2,-2 4,-2 2,-2 h 2 l .8,1 2,.8 -.5,-2 -.3,-2 -3,-3 -.3,-1 -.4,1 -.9,-1 z m 7,31 3,-2 5,-3 v -4 l -.4,-3 -2,-4 2,1 1,3 .4,8 -2,.4 -3,2 -3,3 z m 2,-19 -.9,-.2 v 1 l 2,2 -.2,-1 z m 3,2 -1,-3 -2,-3 -2,-3 -2,-4 -.8,-.7 2,4 .3,1 3,6 2,2 z"/>
<path d="m 465,69 -1,3 .8,1 -.3,5 -.5,1 3,9 1,2 .7,14 1,3 -.4,6 3,7 .3,6 -.1,2 -30,-.4 -46,-2 -39,-3 5,-67 44,3 55,2 z"/>
<path d="m 686,209 2,-.4 3,1 2,.6 .7,.9 h 1 l 1,-2 1,.8 h 2 l -.1,1 -3,.5 -2,1 2,.8 2,-2 2,-.4 2,2 2,-.1 2,-2 4,-2 5,-.3 5,-6 4,-3 9,-5 5,30 -2,1 1,2 -.1,2 .6,2 -1,3 -.1,5 -1,4 .5,1 -.4,2 -1,.5 -2,3 -2,2 h -.6 l -2,2 -1,-1 -2,2 -.3,1 h -1 l -1,2 .1,2 -1,.5 1,1 v 2 l -1,.2 -.7,.8 -1,.5 -.6,-2 -2,-.5 -1,2 -.3,2 -1,1 1,4 -2,.8 -.4,4 h -2 l -3,1 -1,-2 -4,-1 -.8,-3 -.5,-.8 -3,2 -.6,2 h -.9 l -1,.7 -1,-.8 -3,-.8 -2,.8 v 1 l -2,-.2 -2,-2 -2,.2 -4,-.7 v -1 l -2,-3 -3,-1 -2,.8 -2,-.1 -1,-.5 -7,-57 21,-4 z"/>
<path d="m 502,399 -5,-4 -2,-.9 -.5,2 -5,.3 -.6,-2 -5,2 -2,-.7 -4,.3 -.6,2 -4,.9 -1,-1 -1,.1 -2,-2 -2,.7 -2,-.5 -2,-2 -2,4 -1,.8 -1,-2 .3,-2 -1,-.7 -2,2 -2,-1 -.1,-2 -1,.5 -3,-2 -3,3 -2,-1 .7,-2 -2,.1 -2,-3 -4,-1 -2,2 -2,-2 -1,.4 -2,.1 -4,-2 -2,.1 -1,-.7 -.5,-3 -2,-2 -1,2 -1,-1 -1,-.4 -1,1 -2,-.3 -2,-3 -3,-1 1,-43 -53,-3 .6,-11 16,1 68,3 62,.1 .2,11 4,24 -.7,39 z"/>
<path d="m 94,166 47,11 8,-37 3,-6 .4,-2 .8,-.9 -.9,-2 -3,-1 .2,-4 4,-6 2,-.8 2,-2 -.1,-2 2,-2 3,-6 4,-5 -.5,-3 -4,-3 -2,-4 -30,-7 -3,1 -5,-.9 -2,-.9 -2,1 -3,-.4 -4,.5 -.9,.7 -4,-.4 -.8,-2 -1,-.2 -4,1 -2,-1 -2,.8 -.2,-2 -2,-1 -2,-.2 -1,-1 -3,.3 -1,-.8 h -1 l -1,.9 -6,.7 -7,-4 1,-6 -.4,-4 -3,-4 -4,.1 -.4,-1 .4,-1 -.7,-.8 -1,.1 -1,1 -2,-.2 -.5,-1 -1,-.1 -.7,.6 -2,-2 v 4 l -1,1 -1,4 -.1,2 -4,12 -13,31 -3,5 -2,-.1 .1,2 -5,7 -.3,3 1,1 .1,2 -1,1 -1,3 .1,6 1,3 z"/>
<path d="m 826,189 -2,.3 -3,-2 -3,-6 h -2 l -.4,-2 -2,-1 -70,14 -.8,-6 -4,3 -.9,.1 -3,3 -3,2 5,30 3,20 17,-3 60,-12 1,-2 2,-1 2,-.3 2,.6 1,-2 2,-.6 2,-3 2,-2 3,-3 -4,-3 -2,-1 -1,-3 -3,-.9 -.5,-4 1,-1 .7,-2 -2,-2 3,-5 -.1,-2 2,-2 z"/>
<path d="m 883,171 -1,-1 -3,-1 -.6,-2 h -.8 l -.7,-3 -6,2 3,12 -.4,1 .4,2 6,-4 .1,-3 -.8,-.8 .4,-.6 -.1,-1 -.9,-.7 1,-.4 -.9,-2 2,.7 .3,1 .7,1 -1,-.8 1,2 -.3,1 -.6,-1 v 2 l .6,-.9 .4,.9 1,-2 -.2,-2 1,3 1,-.9 z m -5,12 h .9 l .5,-.6 -.8,-1 -.7,.7 z"/>
<path d="m 772,350 -20,3 -.1,-3 -3,-3 -1,2 -.7,-.3 .2,-1 -.4,-.5 -23,2 -7,4 -1,.1 -4,2 -.1,2 -2,1 -1,3 .2,1 6,4 3,-.3 3,4 .4,2 4,5 3,2 1,.2 2,2 1,2 2,2 2,.5 3,3 .1,1 3,3 5,2 4,7 .3,3 4,2 2,5 .8,3 4,.4 .8,-2 h .6 l 2,-2 .5,-2 3,-2 .3,-2 -1,-.9 .8,-.7 .8,.4 1,-.4 2,-2 4,-2 2,-2 .1,-.7 5,-4 -.1,-.5 -.9,-.8 1,-2 h .8 l .4,.5 .7,-.8 h 1 l .6,-2 2,-2 -.3,-5 .8,-2 4,-6 2,-2 2,-1 z"/>
<path d="m 396,126 46,2 30,.4 -.1,2 -.9,2 -3,2 -.3,1 2,2 .4,2 3,.6 2,2 -.2,40 -2,-.1 -.1,2 1,2 -.1,1 -1,.5 .4,2 1,.4 .7,2 -2,5 -1,4 1,1 .3,1 .7,2 -2,.2 -2,-.7 -.9,-3 -1,-1 -6,-2 -.6,-1 -2,-.6 -1,.6 -1,-.5 -.9,.4 -.7,-.4 -.9,.4 -.7,-.5 -1,.7 -2,-.6 -2,2 -2,.1 -2,-2 -2,-.2 -3,-3 -38,-2 -51,-4 4,-44 2,-21 z"/>
<path d="m 621,365 46,-4 23,-3 .1,-5 1,-1 2,.1 1,-.9 .8,-4 5,-3 4,-.5 3,-3 .5,-1 5,-2 .6,-3 4,-3 .8,.2 .1,2 .8,.8 2,-1 .7,-2 4,-2 3,1 2,-5 1,-1 2,.1 0,-5 .3,-.7 -5,.5 -.2,1 -29,3 -6,1 -20,1 -5,.8 -17,1 -3,.8 -23,2 -.7,-.6 h -4 l 1,3 -.6,.9 -23,2 -.8,1 -.8,-.7 h -1 v 1 l .6,1 -.1,1 -1,.5 1,2 -.8,.7 -2,-.2 .6,1 1,1 v .7 l -1,.5 -1,2 .1,.6 1,1 -.4,.7 h -2 v .5 l .9,.9 .1,.8 -1,.2 -.5,.8 -2,.2 -.9,.9 .6,.9 1,-.1 .5,.9 -2,1 .4,2 -2,-.6 -.1,.7 .4,1 -.3,1 -1,-.8 -.8,.8 1,.1 .1,2 -.6,1 1,.9 -.3,2 .8,.7 -.7,1 -1,-.5 -.9,2 -2,.7 z"/>
<path d="m 282,429 .3,-3 34,4 32,3 8,-99 .8,0 53,3 -1,43 3,1 2,3 2,.3 1,-1 1,.4 1,1 1,-2 2,2 .5,3 1,.7 2,-.1 4,2 2,-.1 1,-.4 2,2 2,-2 4,1 2,3 2,-.1 -.7,2 2,1 3,-3 3,2 1,-.5 .1,2 2,1 2,-2 1,.7 -.3,2 1,2 1,-.8 2,-4 2,2 2,.5 2,-.7 2,2 1,-.1 1,1 4,-.9 .6,-2 4,-.3 2,.7 5,-2 .6,2 5,-.3 .5,-2 2,.9 5,4 6,2 3,2 3,-1 3,.8 .2,12 .5,20 .7,3 3,3 .7,5 4,5 .8,4 h 1 l -.1,7 -3,6 1,2 -1,2 .7,3 -.1,4 -2,4 -.1,.8 -2,1 1,2 1,1 -4,.3 -8,4 -4,1 -2,2 -.7,-.5 2,-2 2,-.7 .5,-.9 -3,-.1 -.7,-.8 .8,-2 -.9,-2 h -.6 l -2,1 -2,3 .3,2 3,3 1,.3 v .8 l -2,2 -5,4 -4,4 -3,1 -5,3 -4,2 -4,2 -4,2 3,-3 v -1 l .6,-.8 -.2,-2 -2,-.1 -1,2 -3,1 -2,-1 -.3,-2 h -2 l .8,2 1,.7 1,.9 2,2 -.7,.8 -4,2 -2,.1 -1,-1 -.5,2 .5,1 -3,2 -2,.2 -.8,.7 -.4,2 -2,3 -2,.7 -2,-.6 -2,1 .3,1 1,.8 1,.8 -2,4 -.3,3 -1,2 -1,1 -3,.4 2,.6 2,-.6 -.4,3 -1,-.1 .2,1 .3,1 -1,.9 v 3 l 2,1 .6,3 -.4,2 -1,.4 .4,2 1,.4 .8,2 v 3 l 1,2 2,3 -.1,.7 -2,-.2 -2,1 .2,1 -.9,-.3 -1,-.2 -3,-4 -2,-.6 h -7 l -3,-.8 -4,-3 -2,-1 -2,.1 -3,-3 -5,-2 v -1 l -1,-2 -.9,-5 -1,-2 -2,-1 v -2 l -1,-.6 .6,-3 -.3,-2 -1,-1 .7,-3 -.8,-3 -2,-1 h -1 l -4,-4 .1,-2 -.8,-2 -.8,-.2 -.9,-2 -2,-2 -3,-2 -.2,-2 -1,-.7 .2,-2 .5,-.7 -1,-2 .1,-.7 -2,-2 .1,-2 -3,-5 -.1,-2 -2,-3 -5,-5 v -1 l -3,-2 -.1,-2 -1,-.4 v -.7 l -.8,-.2 -2,-3 h -.8 l -.7,-.6 -1,1 h -2 l -3,-1 h -5 l -4,-2 -1,2 -2,-.6 -3,1 -2,3 -2,3 -1,4 -1,1 -1,.1 -.9,2 -1,.6 -.1,2 -3,.1 -2,-2 h -1 l -2,-3 -4,-.5 -2,-2 -1,-.2 -2,-.8 -3,-3 .2,-.8 -2,-1 -1,-.1 -3,-3 -.1,-2 -2,-4 .2,-2 -.7,-1 .8,-2 -.1,-2 -3,-4 -.6,-4 -2,-2 v -1 l -1,-.2 -.7,-1 -2,-2 -.9,-.1 -2,-2 v -1 l -3,-2 -.6,-2 -3,-2 -3,-4 -3,-1 -2,-2 .2,-1 -1,-1 -2,-4 -2,-1 z m 175,138 .8,.1 -.6,-5 -4,-12 -.2,-8 5,-10 6,-8 7,-5 v -.7 h -.8 l -3,1 -4,2 -.7,2 -8,12 -3,8 v 9 l 4,12 z"/>
<path d="m 233,218 3,-22 -48,-8 -21,109 46,8 40,6 12,-88 z"/>
<path d="m 859,102 -1,4 2,3 -.4,2 .1,1 -1,2 -1,.4 -.6,1 -2,1 -.7,2 1,3 -.5,2 .5,2 -1,2 .4,2 -1,2 .2,2 -.7,1 .7,4 .7,2 -.5,3 .9,2 -.2,2 -.5,1 -.1,1 2,3 -12,3 -1,-1 .5,-2 -3,-14 -2,-2 -.9,2 -.9,-2 .8,-2 -3,-7 .3,-4 .4,-1 -.6,-2 .4,-2 -2,-2 -.5,-3 .4,-2 -1,-.9 .6,-2 -.8,-2 27,-7 z"/>
<path d="m 835,265 -1,3 .5,1 .4,-1 .8,-3 z m -35,-7 -.7,-1 1,-.1 1,-.9 .4,-2 -.2,-.5 .1,-.5 -.3,-.7 -.6,-.5 -.4,-.1 -.5,-.4 -.6,-.6 h -1 l -.6,-.1 -.4,-.4 .1,-.5 -2,-.6 -.8,.3 -1,-.1 -.7,-.7 -.5,-.2 -.2,-.7 .6,-.8 v -.9 l -1,-.2 -1,-.9 -.9,.1 -2,-.3 -.4,.7 -.4,2 -.5,2 -10,-5 -.2,.9 .9,2 -.8,2 .1,3 -1,.8 -.5,2 -.9,.8 -1,2 -.9,.8 -1,2 -2,-1 -2,8 -1,2 -3,-.5 -1,-2 -2,-.7 -.1,5 -1,2 .4,2 -2,2 .4,2 -4,6 -1,3 2,1 -2,2 .1,1 -2,2 -.7,-1 -4,3 -2,-1 -.6,1 .8,.5 -.5,.9 -6,2 -3,-2 -.8,2 -2,2 -2,.1 -4,-2 -.1,-2 -2,-.7 .8,-1 -.7,-.6 -5,7 -3,1 -3,3 -.4,2 -2,1 -.1,2 -1,1 -2,.5 -.5,2 -1,.4 -7,4 29,-3 .2,-1 5,-.5 -.3,.7 29,-4 39,-7 29,-6 -.6,-1 .4,-.1 .9,.9 -.1,-1 -.3,-2 2,1 .9,2 v -1 l -3,-6 v -1 l -.7,-.8 -1,.7 .5,1 h -.8 l -.4,-1 -.6,.9 -.9,-1 -2,-.1 -.2,.7 2,2 -1,-.7 -.5,-1 -.4,.8 -.8,.1 -2,2 .3,-2 v -1 l -2,-.7 -2,-.5 -.2,-2 -.6,-1 -.6,1 -2,-1 -2,.3 .2,-.9 2,-.2 .9,.5 2,-.8 .9,.4 .5,1 v .7 l 2,.4 .3,.9 .9,.4 .9,1 1,-2 h .6 l -.1,-2 -1,1 -.6,-.9 2,-.2 -1,-.9 -1,.6 -.1,-2 -2,.2 -2,-1 -2,-2 4,2 .9,.3 2,-.8 -2,-.9 .6,-.6 -1,-.5 .8,-.2 -.3,-.9 1,.9 .4,-.8 .4,1 1,.8 .6,-.5 -.5,-.6 -.1,-2 -1,-.1 -2,-.8 .9,-1 -2,-.1 -.4,-.5 -1,.6 -1,-.8 -.5,-1 -2,-1 -2,-2 -2,-2 3,1 .9,1 2,.7 2,2 .2,-2 .6,1 2,.5 v -4 l -.8,-1 1,.4 .1,-2 -3,-1 -2,-.2 -1,-.2 .3,-1 -2,-.3 -.1,-.6 h -2 l -.2,.8 -.7,-1 h -3 l -1,-.4 -.2,-1 -1,-.6 -.4,-2 -.6,-.4 -.7,1 -.9,.2 -.9,.7 h -2 l -.9,-1 .4,-3 .5,-2 .6,.5 z m 22,12 .9,-.1 0,-.6 -.8,.1 z m 8,14 -1,3 1,-1 z m -2,-15 .7,.3 -.2,2 -.5,-.5 -1,1 1,.4 -2,4 .1,8 2,3 .5,-2 .4,-3 -.3,-2 .7,-.9 -.2,-1 1,-.6 -.6,-.5 .5,-.7 .8,1 -.2,1 -.4,4 1,-2 .4,-3 .1,-3 -.3,-2 .6,-2 1,-2 .1,-2 .3,-.9 -5,2 -.7,.8 z"/>
<path d="m 162,84 .7,4 -1,4 -30,-7 -3,1 -5,-.9 -2,-.9 -2,1 -3,-.4 -4,.5 -.9,.7 -4,-.4 -.8,-2 -1,-.2 -4,1 -2,-1 -2,.8 -.2,-2 -2,-1 -2,-.2 -1,-1 -3,.3 -1,-.8 h -1 l -1,.9 -6,.7 -7,-4 1,-6 -.4,-4 -3,-4 -4,.1 -.4,-1 .4,-1 -.7,-.8 -1,.1 -2,-2 -1,.4 -2,-.1 -.7,-2 -2,-.3 2,-8 -.7,6 .5,.5 v -2 l .8,-.2 1,2 -.5,-2 1,-4 2,.4 -1,-2 -1,.3 -2,-.4 .2,-4 .2,2 .9,.5 .6,-2 h 3 l -2,-1 -2,-2 -1,2 1,-3 -.3,-5 -.2,-4 .9,-6 -.5,-2 -1,-2 .1,-4 .4,-3 2,-2 -.7,-1 .2,-.6 .9,.1 8,8 5,2 5,2 3,-.1 .2,3 1,-2 h .7 l .6,3 .5,-3 1,-.2 .5,.7 -1,.6 .1,2 .7,-2 h 1 l -.4,3 -1,-.8 .4,1 -.1,2 -.8,.7 -2,3 1,-3 -2,.4 -.4,2 -4,3 -.4,1 -2,2 -.1,1 h 2 l 2,-.2 .5,-.9 -4,.5 v -.6 l 3,-3 2,-.8 2,-.2 1,-2 3,-2 v -1 h 1 l .1,4 h -2 l -.6,.8 -1,-.9 .3,1 v 2 l -.7,.7 -.3,-2 -.8,.8 .7,.6 -.9,1 h 1 l .7,-.5 .1,2 -1,2 -.9,1 -.1,2 -1,-.2 -.2,-1 .9,-1 -.8,-.5 -.8,.7 -.7,2 -.8,.9 -.1,-2 .8,-1 -.2,-1 -1,1 .1,2 -.6,.4 -2,-.4 -1,1 2,-.6 -.2,2 1,-2 .4,1 .5,-1 .7,2 h .7 l .7,-.8 .6,-.1 2,-2 .2,-1 .8,.6 .3,.9 .7,-.3 .1,-1 h 1 l .2,-3 -.1,-3 .9,.3 -.7,-2 1,-.8 .2,-2 2,-2 1,.1 .3,-1 -1,-1 -.1,-4 -.8,.9 .7,3 -.6,.1 -.6,-2 -.6,-.5 .3,-2 2,-.1 .3,.7 .3,-2 -2,-2 -.6,-2 -.2,2 .9,1 -.7,.4 -1,-.8 -2,1 2,.5 .2,2 -.3,2 .9,-1 1,2 -.4,2 h -2 v -1 l -2,-1 .5,-3 -2,-3 3,-3 .6,-4 h .9 l 1,3 v -3 l 1,.3 v -3 l -.9,-.8 -1,2 -1,-3 1,-.1 -2,-5 2,-.6 25,8 32,8 24,6 z m -79,-39 h .5 l .1,.8 -.5,.3 .1,.6 -.7,.4 -.2,-.9 .5,-.4 z m 5,-4 -1,2 -.1,.8 .4,.2 .5,-.6 1,.1 z m -.4,-22 .5,.6 1,-.3 .2,-1 1,-2 -1,-.4 -.7,2 -.1,-2 -1,.2 -.7,1 z m 3,-6 .7,2 -.9,.2 -.8,.4 -.2,-2 z m -3,-2 -1,-.2 .5,1 z m -1,2 .8,.4 -.4,1 2,-.5 -.2,-2 -.9,-.2 z m -3,-.4 .3,3 2,1 .6,-2 -1,-2 z m 2,-1 -1,-1 -.9,.1 2,2 z m 3,-7 h -1 v .8 l 1,.6 z m -.9,32 .4,-3 h -1 l -.2,2 z"/>
<path d="m 723,298 -.8,1 2,.7 .1,2 4,2 2,-.1 2,-2 .8,-2 3,2 6,-2 .5,-.9 -.8,-.5 .6,-1 2,1 4,-3 .7,1 2,-2 -.1,-1 2,-2 -2,-1 1,-3 4,-6 -.4,-2 2,-2 -.4,-2 1,-2 .1,-5 2,.7 1,2 3,.5 1,-2 2,-8 2,1 1,-2 .9,-.8 1,-2 .9,-.8 .5,-2 1,-.8 -.1,-3 .8,-2 -.9,-2 .2,-.9 10,5 .5,-2 .4,-2 .4,-.7 -.9,-.4 .2,-2 -1,-.5 -.2,-.7 h -.7 l -.8,-1 .2,-1 -3,.4 -2,-2 -1,.3 -.9,1 h -1 l -2,3 -3,.4 -2,-1 -3,4 -2,-.3 -3,4 -.9,2 -2,2 -2,-11 -17,3 -3,-20 -2,1 1,2 -.1,2 .6,2 -1,3 -.1,5 -1,4 .5,1 -.4,2 -1,.5 -2,3 -2,2 h -.6 l -2,2 -1,-1 -2,2 -.3,1 h -1 l -1,2 .1,2 -1,.5 1,1 v 2 l -1,.2 -.7,.8 -1,.5 -.6,-2 -2,-.5 -1,2 -.3,2 -1,1 1,4 -2,.8 -.4,4 h -2 l -3,1 -.1,1 .6,1 -.6,4 2,2 .8,1 1,.6 -.1,.9 4,6 h 1 l 2,2 1,.3 1,-.1 z"/>
<path d="m 611,144 -3,.8 .2,2 -2,3 -.2,3 .6,.7 .8,-.7 .5,-2 2,-1 2,-4 4,-1 .8,-3 .7,-.9 .4,-2 2,-1 v -2 l 1,-.9 1,.1 v 2 l -1,.1 .5,1 -.7,2 -.6,.1 -1,4 -.7,.5 -3,7 -.3,4 .6,2 .1,1 -2,2 .3,2 -.9,3 .3,2 .4,4 -1,4 -2,5 1,2 -.3,.3 .8,2 -.5,1 1,.9 v 3 l 1,2 -.4,3 .3,4 -46,3 -1,-3 -3,-.7 -3,-2 -2,-6 .1,-2 2,-3 -.6,-1 -2,-2 -.2,-3 -1,-4 -.2,-3 -2,-3 -3,-.7 -5,-4 -.6,-3 -6,-3 -.2,-1 h -3 l -2,-3 -2,-1 .7,-5 -.9,-2 .5,-5 1,-2 -.3,-3 -1,-1 -2,-.3 v -2 l 3,-6 6,-4 -.4,-13 .9,.4 .6,-.5 .1,-1 .9,-.6 1,1 .7,-.1 h 3 l 7,-3 .3,-1 h 1 l .7,-1 .4,.8 2,-.9 2,-2 .3,.5 1,-1 2,2 -.8,2 -1,1 .5,2 -1,2 .4,.9 2,-1 v -1 l 3,2 2,.7 2,.7 3,4 17,4 1,1 4,.8 .7,.5 3,-.2 5,.8 1,2 -1,1 .8,.8 4,.7 1,1 .1,4 -1,3 2,.1 1,-.8 .9,.8 -1,3 1,2 1,.3 z m -50,-37 -.5,.1 -2,2 .2,.5 2,-.6 v -.6 l .9,-.3 z m 2,-1 -1,.3 -.2,.7 .9,-.1 z m -1,-2 -.2,.9 h 2 l .6,-.4 .1,-1 z m 3,-3 -.3,2 1,-.5 .1,-1 z m 58,32 -2,.3 -.4,1 1,2 z"/>
<path d="m 355,144 -51,-5 -57,-8 -2,11 -8,55 -3,22 32,5 45,6 38,3 4,-44 z"/>
<path d="m 804,252 -3,-2 -1,2 .5,.4 .4,.1 .6,.5 .3,.7 -.1,.5 .2,.5 z"/>
</g>
</svg>