<svg xmlns="http://www.w3.org/2000/svg" viewBox="0 0 1440 720" width="1440" height="720">
  <defs>
    <radialGradient id="bg" cx="50%" cy="40%" r="70%">
      <stop offset="0%" stop-color="#262626"/>
      <stop offset="100%" stop-color="#171717"/>
    </radialGradient>
    <radialGradient id="vignette" cx="50%" cy="50%" r="60%">
      <stop offset="0%" stop-color="transparent"/>
      <stop offset="100%" stop-color="rgba(0,0,0,0.4)"/>
    </radialGradient>
  </defs>
  <rect width="1440" height="720" fill="url(#bg)"/>
  <g fill-rule="evenodd" stroke="#171717" stroke-width="1.2" stroke-linejoin="round">
    <path d="M422.9,239.5L451.6,218.0L493.8,185.4L493.7,188.3L495.3,189.9L498.1,191.4L499.9,194.9L501.8,195.5L502.7,196.9L502.5,197.9L503.7,198.0L504.0,199.3L505.0,200.1L490.5,213.4L491.8,215.2L492.2,216.9L494.3,217.9L494.9,226.4L497.1,227.7L502.0,232.8L504.8,237.9L506.1,243.5L506.0,249.2L504.4,254.8L501.6,260.0L491.7,268.8L483.4,270.2L470.8,269.6L465.7,265.5L463.0,267.3L457.9,267.3L447.3,278.8L447.3,275.7L444.9,273.6L442.0,269.0L439.6,268.0L438.9,266.4L439.8,264.4L439.6,263.4L436.7,260.9L434.0,255.8L431.2,253.9L429.2,253.5L427.0,251.6L424.7,246.4L424.6,243.1L422.9,239.5Z" fill="#d12828" fill-opacity="0.85"/>
    <path d="M543.7,374.6L616.7,306.0L618.4,308.8L621.0,309.9L623.0,314.9L624.8,316.0L626.6,318.8L628.1,319.7L629.7,319.4L630.2,320.4L632.7,321.6L635.1,321.9L639.2,326.1L639.9,327.5L639.9,329.8L640.9,331.6L640.7,332.7L642.6,334.8L644.5,334.8L646.2,335.9L648.5,336.2L650.7,335.5L652.1,336.7L654.4,337.0L661.2,340.3L661.6,341.3L663.3,342.4L666.1,342.1L667.6,343.9L670.7,345.1L677.0,349.4L678.3,349.3L680.4,350.6L649.6,382.9L586.0,441.0L585.0,440.0L584.2,437.4L583.3,436.4L582.2,436.5L582.7,438.1L581.8,438.9L578.0,438.3L577.3,436.1L574.3,434.9L570.3,431.2L570.4,430.2L572.3,429.6L571.3,429.1L571.1,427.4L571.6,427.4L573.2,429.0L574.1,428.2L573.0,428.1L573.3,425.8L572.5,426.0L571.3,423.9L568.6,423.3L568.7,421.2L570.0,420.8L570.6,421.2L571.2,419.8L571.0,419.3L569.9,418.7L568.3,420.3L567.8,417.9L565.5,420.3L564.9,419.0L565.3,417.5L563.6,417.7L564.1,416.5L562.5,416.1L562.9,414.8L562.1,413.7L561.3,416.4L560.1,416.8L561.0,415.4L559.2,413.9L559.9,412.5L560.9,412.0L560.8,411.5L560.1,411.5L559.2,412.7L558.2,411.8L555.8,411.8L556.6,409.6L554.9,408.0L554.7,406.7L555.8,406.3L557.3,407.2L558.2,406.0L557.2,404.8L556.5,401.3L554.8,399.7L555.3,399.0L557.2,399.4L558.3,398.4L559.2,399.4L560.6,398.9L560.6,397.9L558.3,397.1L557.0,395.6L557.4,395.0L559.5,394.4L560.1,392.5L557.5,387.8L549.0,384.2L547.6,383.0L547.1,380.1L543.7,374.6Z" fill="#c42020" fill-opacity="0.85"/>
    <path d="M609.7,461.4L621.6,448.9L651.0,458.9L664.4,458.8L665.5,458.0L667.6,458.3L671.3,456.8L675.0,457.2L676.4,456.4L679.6,456.9L683.1,461.4L686.8,464.3L687.4,465.9L689.4,467.6L690.7,469.7L694.8,470.7L697.0,473.4L697.7,475.1L675.0,489.6L674.7,490.8L672.2,492.4L672.0,498.9L670.9,498.7L668.3,499.7L665.6,501.9L668.0,512.4L657.0,522.2L655.3,526.4L650.5,528.0L646.1,531.1L644.3,531.1L644.0,530.2L641.9,530.4L642.1,529.7L643.4,529.3L642.8,529.0L643.0,527.4L642.2,528.1L642.2,526.7L639.9,526.3L640.2,525.7L642.0,525.6L642.7,524.5L641.0,524.4L640.0,523.3L641.3,523.4L640.6,522.6L641.9,521.4L641.0,521.3L640.5,520.0L641.3,519.6L640.8,518.0L641.6,517.7L642.1,516.6L640.7,516.8L640.5,516.3L641.4,515.9L640.1,514.6L641.5,514.3L641.6,513.2L639.7,511.5L638.5,512.0L637.9,510.1L636.7,510.6L636.4,511.4L635.1,511.0L635.9,510.7L636.5,505.9L634.4,504.1L633.5,505.0L632.0,504.0L632.5,502.7L634.0,502.3L634.4,500.6L633.5,500.1L633.2,501.5L631.8,500.5L631.8,497.7L630.7,497.3L631.3,495.9L628.2,493.2L628.6,491.3L627.2,489.8L626.7,487.0L627.1,486.5L627.6,487.5L628.6,487.5L629.4,484.6L629.2,482.3L630.0,480.9L628.5,479.9L629.9,478.6L627.9,477.2L626.8,478.3L626.9,476.3L625.4,475.8L626.6,475.5L626.7,474.9L624.8,474.3L623.7,472.4L622.2,472.6L621.1,470.7L620.0,471.8L618.3,471.3L617.6,470.7L618.8,470.1L618.1,468.5L617.7,468.6L618.2,469.2L617.6,469.8L616.5,469.6L616.6,468.9L615.6,468.9L616.2,468.2L615.2,467.9L615.6,467.4L614.8,467.5L614.6,466.5L613.4,466.0L613.1,466.6L611.7,465.8L612.6,464.5L611.9,463.2L609.9,464.3L610.6,462.6L609.7,461.4Z M662.4,489.5L664.0,490.7L664.5,489.5L665.9,488.9L667.1,489.5L667.8,487.5L667.6,486.5L664.2,485.4L661.6,485.6L662.4,489.5Z" fill="#b91c1c" fill-opacity="0.85"/>
    <path d="M381.5,186.2L415.4,147.8L465.5,118.7L467.1,120.4L467.1,121.9L468.3,122.1L468.2,123.0L469.5,123.2L469.7,126.4L471.0,127.3L471.0,128.8L470.0,131.4L470.4,132.4L469.1,133.5L469.7,134.6L469.0,135.1L468.7,138.1L468.8,139.0L470.0,139.4L470.1,140.1L469.7,140.7L469.0,140.4L468.8,141.2L470.1,142.5L469.2,143.6L469.9,144.4L469.1,145.2L470.2,146.2L469.6,148.1L468.9,148.0L469.0,148.7L468.5,149.1L469.2,151.2L470.3,150.9L470.4,153.5L471.3,154.3L471.4,154.9L470.7,155.2L470.7,157.3L471.8,157.5L471.4,158.7L473.2,159.9L472.4,160.8L474.9,162.5L474.6,163.6L475.7,164.8L476.0,166.7L475.4,167.6L476.4,168.6L476.2,170.4L477.9,172.9L480.8,173.5L482.0,174.5L485.5,179.1L487.9,180.2L488.8,179.7L488.9,182.1L490.5,182.1L491.7,183.1L491.8,183.9L492.9,184.1L493.0,184.9L493.8,185.3L445.2,223.0L422.9,239.5L422.7,231.7L421.8,229.2L422.0,228.5L419.7,225.6L418.1,224.8L416.6,222.6L415.4,219.8L414.2,213.9L407.5,208.9L407.3,205.9L406.4,204.0L405.5,198.0L404.4,196.3L403.2,190.6L400.7,189.2L401.1,188.0L400.6,187.1L396.3,185.0L392.6,185.9L390.2,184.9L388.9,186.3L387.6,186.7L386.4,185.6L384.8,186.4L383.5,185.5L381.5,186.2Z" fill="#bf1e1e" fill-opacity="0.85"/>
    <path d="M673.7,448.2L674.3,446.6L674.8,439.4L675.3,438.9L674.7,437.8L675.3,436.4L674.9,435.6L674.8,428.8L676.1,401.3L674.5,392.9L677.2,393.4L678.3,394.9L678.5,396.7L679.6,397.2L680.1,398.7L684.2,399.0L692.5,404.5L696.3,405.3L696.7,404.9L697.2,405.8L698.9,406.1L699.5,407.6L700.2,407.7L703.8,411.1L706.3,411.0L707.1,412.8L708.3,413.3L709.1,413.1L710.1,413.9L710.5,413.5L711.6,414.9L713.8,415.4L714.9,417.0L716.6,417.0L717.8,419.1L719.8,418.9L719.8,419.4L723.1,421.6L722.8,422.0L724.2,422.9L723.9,423.4L726.9,425.3L727.6,426.6L729.2,426.9L729.5,428.2L730.4,428.2L730.0,429.0L730.6,428.7L731.4,429.7L732.9,430.1L733.5,431.1L734.1,430.5L734.1,431.5L735.3,431.6L735.8,432.9L736.8,433.0L737.1,436.6L738.1,436.9L737.6,437.6L738.3,438.5L738.0,439.3L738.4,439.9L740.3,440.2L740.8,440.7L740.3,441.3L741.6,441.5L741.8,443.2L744.8,445.2L728.8,455.4L729.9,458.1L729.8,460.0L731.8,461.8L729.4,465.0L728.6,468.2L726.9,468.4L726.7,467.2L725.3,466.1L724.9,464.4L723.5,463.3L722.7,460.9L721.7,460.0L697.7,475.1L695.0,470.9L690.7,469.8L689.4,467.6L687.4,465.9L686.7,464.3L683.1,461.4L678.5,455.2L676.6,453.8L676.4,452.0L674.7,449.5L674.0,449.3L673.7,448.2Z" fill="#dc2626" fill-opacity="0.85"/>
    <path d="M583.5,444.4L584.6,444.9L584.4,443.3L585.4,442.7L586.0,441.0L649.7,382.9L651.4,383.3L651.6,383.9L653.6,383.9L654.3,384.7L656.7,384.9L658.0,384.4L659.8,385.3L661.4,384.6L664.0,387.3L665.0,387.3L666.2,389.1L669.4,391.7L671.1,392.6L674.6,392.7L676.1,401.3L675.1,421.7L674.8,434.9L675.3,436.4L674.7,437.8L675.3,438.9L674.8,439.5L674.3,446.5L673.7,448.3L676.4,452.0L676.7,453.9L678.5,455.2L679.4,456.8L676.3,456.4L675.0,457.2L671.6,456.8L667.6,458.4L665.5,458.1L664.4,458.8L651.0,458.9L621.7,448.9L609.7,461.4L605.0,461.9L602.3,459.9L598.9,458.2L594.7,457.2L591.9,455.2L585.1,448.8L583.5,444.4Z" fill="#d42525" fill-opacity="0.85"/>
    <path d="M708.7,630.9L709.7,629.5L710.8,629.1L712.7,625.8L711.8,623.3L712.3,621.4L710.3,618.3L722.1,619.5L722.3,615.4L723.2,613.3L723.4,610.6L724.2,609.3L729.2,608.9L729.5,610.1L731.6,610.4L732.0,608.1L733.1,606.9L732.3,605.8L734.2,605.0L734.8,603.7L736.1,603.8L736.6,602.9L737.6,602.6L737.5,600.7L739.5,597.5L738.4,596.7L736.8,597.5L736.2,596.4L736.7,593.5L738.9,588.2L739.5,587.3L741.5,586.8L741.3,582.6L740.6,580.4L738.5,576.2L736.6,573.8L738.5,571.1L738.0,568.4L738.7,567.0L738.5,564.1L739.3,561.2L738.4,558.1L736.2,556.6L736.9,554.9L736.3,553.5L735.3,553.2L732.9,547.8L738.4,540.0L740.1,539.2L740.8,540.7L741.5,540.3L743.2,541.1L743.3,542.1L744.0,541.7L744.5,542.6L746.0,542.4L746.0,542.9L746.6,542.4L746.7,543.2L747.4,543.6L748.1,542.6L748.2,543.9L749.0,544.7L749.7,543.7L750.2,544.9L751.2,544.1L752.2,545.1L753.6,545.1L754.7,543.5L755.7,544.1L756.3,545.2L757.8,544.0L758.5,545.3L760.0,545.3L760.5,547.1L762.7,546.5L763.4,545.4L765.8,545.7L766.2,547.3L764.3,547.4L763.6,549.1L764.6,551.4L766.6,550.8L767.6,551.3L767.9,552.9L765.4,553.4L765.1,554.5L766.0,555.4L767.7,554.3L768.6,554.6L767.6,556.9L769.7,560.6L772.5,561.6L773.2,563.3L774.1,563.6L776.0,561.9L777.6,563.7L779.9,562.7L780.9,563.0L781.6,564.3L780.3,566.4L783.4,566.8L782.8,568.6L783.3,569.7L784.4,568.8L784.7,566.6L785.6,566.7L788.1,574.0L789.3,575.3L791.2,576.0L793.7,580.7L800.1,583.8L826.3,600.1L823.7,602.4L821.2,603.5L820.3,606.4L818.9,608.4L815.0,611.1L815.5,613.9L815.2,616.9L814.1,620.2L812.0,623.5L807.4,626.6L803.6,627.5L800.9,627.1L797.8,628.8L795.3,629.3L790.3,632.5L789.5,634.3L786.8,637.2L786.1,641.0L783.2,644.9L780.1,646.9L776.2,647.0L774.2,649.3L771.5,650.5L766.9,650.9L764.4,654.3L760.2,658.3L753.2,662.3L753.5,663.6L731.8,663.6L731.2,662.9L730.1,662.9L727.7,663.9L726.2,663.3L726.0,662.2L728.5,658.8L728.6,657.8L723.2,655.1L726.4,653.3L726.3,652.5L725.4,652.4L724.1,653.2L723.2,651.8L722.2,652.4L721.1,652.0L720.1,653.5L719.0,653.1L717.8,654.1L718.1,651.9L716.8,651.2L716.7,649.5L717.9,649.1L718.1,650.2L719.3,650.9L719.0,649.7L719.6,647.4L718.5,646.3L719.8,645.6L719.0,644.4L718.1,644.7L717.7,643.6L716.5,644.2L717.5,642.5L715.0,642.2L714.7,641.5L713.8,641.6L713.6,641.1L712.4,641.8L712.7,641.2L711.4,640.4L712.0,639.3L711.6,638.4L709.8,636.8L710.0,635.8L709.3,635.8L709.3,632.2L708.7,630.9Z" fill="#d42525" fill-opacity="0.85"/>
    <path d="M817.6,428.5L818.0,425.9L819.9,425.0L820.8,426.0L822.2,426.1L824.2,428.1L825.6,427.9L828.0,426.7L828.8,425.0L831.0,424.1L832.6,422.4L834.7,422.3L835.2,416.7L836.0,415.1L835.9,413.0L837.3,410.3L836.9,403.8L837.3,402.4L838.6,403.9L838.8,402.5L840.2,402.3L840.3,399.9L839.8,398.7L840.3,391.4L842.8,392.5L843.1,392.2L842.5,390.4L844.1,390.7L844.0,392.1L845.9,390.8L846.6,391.1L846.8,390.1L848.3,391.2L849.5,390.1L849.8,388.8L850.6,389.6L850.3,391.1L852.2,391.1L852.0,388.9L853.9,390.1L854.0,389.1L853.2,388.2L853.8,387.9L854.8,388.7L855.2,388.2L852.2,385.8L851.8,383.9L853.3,384.1L854.8,382.5L855.8,382.4L856.2,380.6L859.2,381.0L859.9,381.7L861.0,381.0L861.4,381.5L861.7,380.3L862.9,381.0L863.7,379.6L868.9,379.7L870.1,380.7L870.9,379.7L871.4,379.7L871.8,380.8L872.8,379.6L873.6,381.3L875.0,379.9L876.1,380.6L876.2,381.7L876.8,382.0L877.5,381.2L876.9,379.9L877.5,379.7L878.3,380.1L878.7,381.5L881.0,381.4L881.6,380.8L882.6,381.2L884.8,382.8L886.9,385.7L887.8,385.4L888.9,386.9L891.0,388.1L891.9,389.8L893.2,389.8L893.2,390.8L893.6,390.0L894.3,390.1L896.9,392.4L897.4,393.7L899.0,394.3L898.9,394.8L897.1,395.7L899.9,397.3L900.0,399.1L901.0,399.7L901.0,400.3L903.3,401.2L904.0,402.7L907.6,404.2L908.8,406.3L909.9,406.4L910.8,405.2L911.6,406.2L912.7,405.6L912.4,406.6L913.8,409.2L914.7,409.5L915.4,411.9L916.5,412.3L916.5,413.7L917.5,413.8L917.4,414.8L918.7,414.8L919.9,416.4L922.5,416.4L923.4,417.0L925.1,416.6L932.5,421.2L938.2,422.4L940.4,423.3L942.3,425.0L949.3,426.3L950.1,427.1L949.8,428.5L951.6,427.7L952.2,429.8L960.3,433.4L961.8,433.2L963.2,431.5L963.4,432.1L962.6,433.6L964.8,432.9L964.0,434.2L964.3,434.8L966.7,433.7L966.3,434.9L967.0,434.7L967.8,435.5L967.2,436.9L968.6,438.1L968.1,439.2L966.8,438.6L965.1,439.3L964.3,438.5L963.5,439.1L963.4,440.0L962.5,439.9L962.6,441.0L962.0,442.2L960.9,442.2L960.2,445.2L959.1,445.1L958.5,446.9L957.6,447.4L957.7,448.9L956.3,451.1L953.4,451.3L951.5,449.6L949.6,449.2L948.0,450.5L943.9,451.6L941.7,453.9L941.0,452.9L939.7,453.4L938.5,454.8L937.5,454.8L936.2,455.7L933.1,462.4L930.9,464.4L926.8,469.5L926.1,471.3L924.1,472.4L921.7,477.7L916.3,482.6L915.1,486.5L916.1,489.0L915.2,490.0L914.8,491.9L913.0,491.6L909.8,494.3L907.6,494.8L906.6,496.2L903.9,496.7L902.6,502.2L900.8,505.1L899.3,506.1L896.0,506.6L894.1,508.4L893.7,513.7L891.4,516.4L890.1,516.3L889.0,515.5L888.3,513.6L888.4,510.2L884.5,508.4L883.1,505.4L883.7,501.4L885.5,498.6L875.0,500.3L870.0,489.2L870.3,483.8L869.3,483.3L867.7,480.6L860.7,482.7L859.6,481.8L859.7,480.3L858.4,480.3L858.2,480.8L821.3,451.5L825.4,448.9L827.9,444.7L825.9,443.1L825.3,441.1L822.1,440.8L821.9,439.4L819.9,436.0L819.8,435.5L820.9,435.0L819.9,433.8L820.1,431.8L819.5,431.6L819.2,429.8L817.6,428.5Z" fill="#cc2222" fill-opacity="0.85"/>
    <path d="M701.7,331.9L701.6,327.1L703.5,323.3L705.0,312.5L704.5,309.6L705.1,307.2L709.3,305.4L711.3,305.7L711.9,306.4L711.2,308.9L713.7,309.9L713.3,311.4L717.0,311.8L719.0,312.8L721.9,316.1L723.9,315.9L724.5,314.4L725.8,314.8L726.0,315.4L725.1,317.2L725.4,319.1L728.2,319.6L732.1,318.3L733.3,319.4L733.7,320.8L738.3,322.5L738.8,323.9L739.5,324.3L740.8,323.9L739.7,325.6L740.3,326.3L740.9,326.4L741.9,325.1L743.3,326.5L747.3,327.5L746.9,328.7L747.2,329.1L747.9,328.9L749.2,326.9L749.8,327.0L750.1,327.9L751.2,326.5L751.8,328.3L753.4,328.8L753.5,328.4L752.5,327.2L753.6,326.0L755.1,328.0L754.4,329.4L754.7,329.9L756.3,329.1L756.6,327.6L758.5,329.1L759.1,327.0L760.3,328.0L760.3,329.4L762.0,330.0L763.2,329.1L763.4,329.9L768.6,326.6L769.0,327.3L768.3,329.0L770.9,331.0L771.0,331.8L772.3,332.6L774.3,332.4L772.8,333.4L773.6,334.3L773.1,335.1L774.8,337.1L775.1,338.9L776.6,339.6L777.3,340.7L778.8,340.8L778.2,342.2L779.3,344.3L781.1,345.3L783.8,345.5L784.2,346.6L783.5,348.2L785.1,348.8L786.1,351.1L789.4,353.3L789.3,354.2L787.7,354.7L787.5,355.6L790.9,358.3L790.9,361.6L793.8,363.0L793.7,363.9L791.7,364.8L791.5,365.6L793.4,366.8L793.3,368.3L794.8,369.4L794.5,370.5L793.3,370.7L793.1,372.9L793.6,373.9L791.9,373.0L787.6,368.7L785.7,369.3L785.4,368.0L777.3,369.8L776.1,371.0L779.6,373.3L773.6,381.2L774.3,382.3L773.6,383.3L775.7,386.9L774.9,387.7L773.1,386.2L771.9,387.0L771.1,386.0L767.8,386.7L764.7,383.6L763.8,381.2L761.8,379.4L762.0,376.6L743.2,360.3L731.0,357.2L724.6,360.0L721.3,359.3L721.6,356.3L720.9,352.7L720.6,352.5L717.1,356.1L704.3,339.8L712.7,334.8L714.9,335.1L718.7,333.7L720.4,331.4L723.5,330.1L722.4,328.3L717.7,325.5L709.2,325.1L709.0,326.3L707.6,326.7L707.5,328.6L705.9,328.6L705.4,332.2L701.7,331.9Z" fill="#bf1e1e" fill-opacity="0.85"/>
    <path d="M801.9,532.0L802.8,530.4L802.9,527.6L804.3,526.8L804.6,526.1L804.3,525.6L805.4,524.1L804.8,522.5L809.8,517.3L811.5,511.4L810.8,511.0L810.5,508.5L827.0,509.8L831.3,511.5L850.8,516.5L852.3,516.4L851.0,514.8L850.3,512.0L846.5,510.8L846.0,509.8L846.2,508.1L847.7,506.8L849.8,509.2L850.2,509.1L851.3,507.2L850.1,505.3L852.2,504.5L853.0,502.7L854.3,502.7L854.4,503.3L855.7,502.6L856.8,499.9L857.5,500.3L857.3,501.6L860.3,501.8L860.9,502.6L863.7,494.7L853.6,484.5L855.5,484.4L858.3,483.0L854.5,480.7L852.8,483.5L849.2,479.9L849.9,478.2L849.3,478.0L848.8,479.5L847.8,478.4L848.8,477.3L849.8,477.8L850.4,476.3L851.5,476.8L852.3,476.1L858.1,480.6L858.7,480.0L859.9,480.1L859.7,481.9L860.7,482.7L867.9,480.4L869.4,483.3L870.3,483.8L870.1,489.3L875.0,500.3L885.1,498.2L885.6,498.7L883.1,502.2L883.0,505.2L884.2,508.2L888.5,510.5L888.4,514.8L889.0,516.2L889.8,516.9L891.4,517.0L893.9,514.7L894.6,511.6L893.8,509.5L894.1,508.4L895.9,507.1L900.1,506.1L901.3,505.0L903.1,500.9L903.3,498.0L903.9,496.6L905.8,496.6L913.0,491.6L914.8,491.8L915.4,489.4L916.1,489.0L915.1,486.5L916.4,482.5L921.7,477.8L924.1,472.5L926.2,471.2L926.9,469.4L930.9,464.3L933.1,462.4L936.2,455.7L941.2,452.9L941.7,453.9L942.7,453.8L943.6,452.1L948.1,450.5L949.5,449.3L951.4,449.5L954.0,451.8L956.1,451.2L957.7,449.0L957.6,447.4L958.5,446.9L959.0,445.2L960.2,445.1L960.9,442.3L962.0,442.0L962.6,441.0L962.5,439.8L963.3,440.0L963.4,439.1L964.1,438.6L965.0,439.1L966.6,438.5L968.0,439.1L968.6,437.9L969.9,437.6L973.9,440.8L975.7,443.9L979.0,445.6L984.4,449.8L987.3,449.4L990.4,451.4L994.2,451.0L996.6,451.8L997.6,452.5L1004.4,461.6L999.2,470.5L997.3,471.2L996.3,474.7L993.0,480.3L992.8,483.0L992.0,485.6L989.2,489.1L985.4,490.7L981.1,491.2L973.8,490.2L969.7,488.6L968.3,490.5L965.4,492.9L960.4,494.0L959.0,497.2L957.0,499.7L956.0,503.6L954.0,506.2L949.7,508.8L945.6,510.0L943.9,513.1L941.9,515.0L936.9,516.9L932.9,523.5L928.0,528.2L923.8,530.0L922.0,530.1L916.7,532.4L915.6,537.7L913.4,541.8L910.4,544.9L905.4,547.0L904.0,549.7L901.0,552.7L890.5,558.5L888.6,560.8L885.7,562.7L883.9,565.7L881.5,567.6L878.2,568.9L874.7,568.9L871.8,567.9L862.3,570.0L861.2,575.0L856.8,580.0L849.3,581.6L844.0,580.6L839.9,583.3L835.0,573.5L834.0,572.5L833.0,574.1L831.0,575.1L829.7,573.9L824.1,577.6L823.7,575.1L822.2,575.3L821.4,574.5L820.8,575.2L819.4,574.8L819.2,576.1L821.7,577.2L823.3,579.2L822.9,581.0L821.7,581.2L818.4,579.2L814.0,573.5L808.3,570.6L808.7,568.5L811.4,567.5L812.3,566.1L812.4,564.8L811.2,561.5L812.8,556.9L812.1,556.1L810.9,556.3L807.3,559.1L806.4,557.6L806.1,555.2L807.0,554.5L809.6,554.4L810.3,552.1L812.3,550.3L812.4,549.3L809.9,549.5L807.2,545.8L807.8,544.0L807.0,542.3L808.1,541.1L806.9,538.3L806.9,537.2L804.9,537.4L805.7,535.8L802.9,534.4L801.9,532.0Z" fill="#c42020" fill-opacity="0.85"/>
    <path d="M566.5,46.2L650.7,50.0L644.7,55.6L643.7,73.4L633.4,73.2L633.1,74.1L630.7,75.9L630.5,77.4L631.8,81.3L631.2,83.9L632.6,86.3L630.9,89.7L629.9,93.4L630.6,94.7L632.9,95.5L632.4,97.8L633.5,99.9L632.1,103.0L633.1,104.4L633.8,109.5L634.8,111.9L636.3,113.2L635.7,114.7L632.2,112.1L631.9,111.2L631.3,111.4L631.4,109.3L628.5,109.0L626.1,107.2L624.9,107.2L623.7,109.1L622.9,106.8L621.5,108.7L617.7,107.6L614.1,105.2L612.2,105.7L610.9,107.1L607.7,107.8L605.3,106.6L605.6,105.6L604.8,104.9L604.1,102.5L601.6,102.9L599.9,101.9L599.2,102.5L599.0,101.2L598.0,100.1L596.5,101.4L595.1,101.4L594.3,100.3L592.5,100.2L592.2,99.3L590.5,98.3L589.7,96.1L586.3,96.6L581.3,78.9L579.8,75.8L577.6,75.7L577.9,71.4L566.5,46.2Z" fill="#d12828" fill-opacity="0.85"/>
    <path d="M630.5,135.8L631.5,133.6L636.3,130.2L636.3,126.0L635.4,123.1L633.7,122.0L633.6,120.4L631.8,120.9L630.6,119.5L632.2,118.3L728.2,118.4L730.6,123.5L731.9,124.9L732.2,129.6L731.5,131.0L731.6,133.7L733.1,137.8L733.4,140.7L734.6,142.6L729.9,148.7L730.1,151.6L728.5,155.3L729.7,158.7L729.3,162.7L731.5,166.0L731.5,168.0L732.4,171.9L731.6,172.9L731.7,173.6L641.4,167.9L640.7,166.4L642.2,161.5L642.4,155.3L640.2,152.6L638.2,151.6L636.2,147.3L636.1,138.2L634.9,137.1L632.0,137.7L630.5,135.8Z" fill="#bf1e1e" fill-opacity="0.85"/>
    <path d="M783.6,119.5L784.0,119.1L889.0,121.2L888.1,121.7L887.8,123.0L888.9,128.5L894.7,134.1L897.0,138.8L898.2,143.7L901.0,147.8L903.5,148.6L905.0,150.9L907.3,150.6L908.7,152.2L910.8,152.8L909.9,154.6L911.7,156.0L911.7,157.6L913.7,159.4L913.6,160.1L911.1,161.1L909.5,160.4L908.6,162.5L908.6,165.3L907.0,167.9L905.1,175.8L904.1,175.2L902.8,175.6L902.2,177.1L899.9,178.1L899.5,180.5L898.1,181.2L897.6,181.8L897.7,182.9L896.0,183.9L893.2,184.3L890.3,183.0L886.8,184.5L885.4,184.2L883.2,184.8L882.1,184.0L881.6,182.7L879.7,181.8L873.0,184.7L871.8,184.8L869.3,183.7L829.2,208.8L829.1,208.0L829.9,206.5L829.3,205.5L829.8,204.7L829.7,203.3L828.7,203.5L827.4,202.0L826.9,202.1L827.1,201.0L826.7,199.8L825.7,199.4L825.4,197.2L824.7,197.2L824.1,196.3L823.8,196.8L822.9,194.7L823.2,193.2L822.9,192.8L823.5,192.4L822.6,191.6L823.1,190.8L822.5,190.2L822.8,187.7L822.2,187.4L822.8,185.9L822.4,185.1L822.8,183.4L822.3,183.1L822.7,182.5L821.7,181.4L822.2,180.2L820.2,179.7L818.4,178.0L818.0,175.7L817.5,175.7L817.4,174.6L815.3,172.9L814.4,170.0L815.0,169.6L814.6,167.8L813.8,167.5L813.6,166.4L814.0,165.3L813.0,163.0L811.4,162.5L810.9,161.2L809.5,160.6L809.7,159.7L807.5,158.3L808.6,157.6L808.4,156.8L805.2,154.4L804.9,153.2L805.7,151.2L805.5,150.4L804.1,150.7L804.2,149.6L801.9,148.0L802.2,147.2L800.7,147.0L800.6,145.9L799.0,144.9L799.3,144.5L798.3,142.6L797.0,141.4L796.1,141.5L796.1,137.8L794.5,136.4L794.1,134.5L791.4,130.6L791.6,129.1L789.2,128.3L789.5,127.7L788.4,127.1L788.5,126.0L786.6,125.6L786.5,124.7L785.5,124.2L783.6,119.5Z" fill="#ef4444" fill-opacity="0.85"/>
    <path d="M787.5,355.3L787.7,354.6L789.4,354.0L788.5,352.4L794.6,346.3L795.6,342.5L797.7,338.4L801.7,338.5L802.6,333.8L805.6,333.6L806.4,336.4L805.3,337.0L805.2,338.8L812.0,338.1L811.2,327.7L832.0,324.1L834.7,320.5L844.6,313.6L854.5,307.7L856.8,307.5L869.9,298.6L881.2,292.4L884.8,302.6L886.0,304.3L893.3,303.6L897.6,304.4L891.0,317.6L888.0,319.2L886.1,319.3L877.7,327.7L881.2,336.9L879.3,339.8L878.1,340.4L873.5,352.0L860.1,381.6L856.2,380.5L855.8,382.4L854.7,382.5L853.2,384.1L851.9,383.8L852.1,385.8L855.1,388.3L854.6,388.7L853.9,387.9L853.1,388.1L854.0,389.1L853.8,390.2L853.0,389.2L851.8,389.0L852.4,390.2L852.0,391.3L850.2,391.1L850.7,389.6L850.0,388.8L848.5,391.1L847.8,391.2L847.1,390.0L846.7,390.4L846.9,391.2L845.9,390.9L844.0,392.2L844.2,390.7L842.7,390.4L843.2,392.5L840.3,391.3L840.2,392.2L839.1,392.0L837.5,393.0L837.3,390.1L836.8,391.1L834.8,391.1L834.1,392.4L832.6,393.3L831.8,393.3L831.3,391.8L830.3,391.3L828.7,392.8L826.7,392.9L823.5,394.6L818.3,394.8L811.9,391.8L804.7,385.5L805.1,383.3L803.8,382.0L804.3,380.7L800.8,380.4L801.3,378.5L799.5,377.8L799.9,375.5L800.8,376.4L802.8,376.1L802.8,372.9L801.6,371.7L800.6,372.9L799.4,372.8L798.4,370.5L796.7,369.1L795.0,369.6L794.5,368.8L793.2,368.4L793.3,366.9L791.6,366.1L791.5,365.3L793.7,363.9L793.8,363.1L790.9,361.6L790.8,358.2L787.5,355.3Z" fill="#c42020" fill-opacity="0.85"/>
    <path d="M697.7,475.1L721.8,460.0L722.7,460.9L723.4,463.3L725.0,464.4L725.3,466.1L726.7,467.2L726.9,468.3L728.5,468.2L729.4,465.0L731.7,461.8L729.7,460.1L729.9,458.0L728.7,455.5L745.9,444.4L746.1,445.3L747.2,445.7L748.0,445.2L749.1,446.2L750.3,445.7L750.8,446.4L751.3,445.7L753.4,445.7L753.8,446.9L755.3,446.6L758.4,448.4L759.0,449.7L759.4,449.3L760.0,449.7L760.6,450.1L760.1,450.6L760.3,451.4L762.5,453.1L762.2,454.2L764.6,456.0L764.6,457.4L765.7,457.8L765.4,458.7L765.9,459.8L767.7,461.0L768.0,462.0L768.9,461.9L771.0,464.3L773.2,465.3L772.8,466.1L773.9,467.2L777.4,467.8L779.0,468.9L785.2,468.0L785.8,468.8L786.5,468.2L786.3,467.3L787.6,467.5L787.8,466.5L788.8,466.5L789.6,467.1L789.7,468.2L790.9,468.1L792.4,469.0L795.0,468.5L794.8,467.8L795.8,467.7L798.2,468.3L798.3,467.6L800.9,467.7L801.7,468.6L802.3,468.1L802.8,469.4L804.0,469.8L804.1,470.5L804.5,469.8L805.8,470.2L807.1,469.5L808.8,471.1L810.4,469.8L812.4,471.8L812.7,473.9L809.6,476.9L809.6,478.3L810.1,478.6L809.4,479.5L809.8,480.5L809.0,481.7L809.3,483.4L808.3,483.8L808.5,484.5L807.7,485.5L807.8,486.1L808.5,486.1L807.7,487.0L809.2,488.8L809.3,489.6L809.9,489.3L809.6,491.1L810.3,491.0L810.8,493.1L811.0,495.1L809.7,498.2L811.5,500.7L811.3,501.4L812.0,501.1L813.2,503.0L811.9,503.3L810.2,506.3L810.8,507.3L810.8,511.0L811.7,511.3L809.8,517.3L808.4,518.5L808.3,519.6L807.7,519.3L807.3,520.4L806.4,520.6L804.9,522.5L805.3,524.2L804.4,525.6L804.7,526.1L804.2,526.9L803.0,527.4L802.7,530.6L801.9,532.1L803.1,534.6L805.5,535.5L805.9,536.1L804.9,537.5L806.9,537.1L806.9,538.3L808.1,541.0L807.0,542.3L807.8,544.1L807.4,546.1L809.8,549.4L812.3,549.0L812.6,549.7L810.3,552.3L809.3,554.6L806.2,555.1L806.7,558.3L807.4,559.0L811.0,556.3L812.8,556.6L812.7,558.1L811.1,561.4L812.5,565.5L811.4,567.5L808.6,568.5L808.0,570.6L814.2,573.6L818.7,579.9L821.6,581.1L822.9,581.0L823.2,579.3L821.6,577.2L819.1,576.2L819.5,574.6L820.0,575.1L821.5,574.6L822.1,575.2L823.8,575.2L824.3,576.0L823.9,577.1L824.2,577.6L829.8,573.7L831.1,575.0L833.0,574.1L833.8,572.6L834.5,572.5L834.5,573.3L835.6,573.7L839.9,583.3L836.7,585.3L836.3,588.9L834.4,592.7L831.9,594.7L828.3,596.0L827.6,598.4L826.3,600.2L800.1,583.8L793.7,580.7L791.2,576.0L789.2,575.3L788.1,574.0L785.6,566.8L784.7,566.7L784.4,568.8L783.2,569.7L782.8,568.6L783.3,566.8L780.2,566.3L781.6,564.3L780.9,563.0L779.8,562.7L777.6,563.7L776.0,561.9L774.1,563.6L773.2,563.3L772.5,561.6L769.9,560.8L767.6,557.1L768.6,554.6L767.7,554.3L766.0,555.4L765.2,554.9L765.4,553.4L767.5,553.2L768.0,552.4L767.0,550.9L765.0,551.5L764.1,550.5L763.6,548.2L764.3,547.4L766.2,547.3L765.8,545.7L763.4,545.4L762.7,546.5L760.5,547.1L759.9,545.4L758.5,545.4L757.8,544.0L756.3,545.3L754.7,543.5L753.6,545.2L752.2,545.1L751.2,544.2L750.2,544.9L749.7,543.8L749.0,544.8L748.2,543.9L748.1,542.7L747.6,543.6L746.6,543.5L746.6,542.5L746.0,543.1L744.5,542.6L744.0,541.8L743.2,542.1L742.6,540.7L740.8,540.7L739.7,538.3L736.9,535.9L735.6,530.6L734.6,529.7L734.0,527.8L733.5,524.9L732.3,522.6L728.7,518.2L727.9,513.6L725.5,511.3L725.0,509.7L723.3,508.6L722.8,507.3L721.5,506.7L720.4,505.0L718.1,504.9L716.6,502.2L713.5,500.0L713.0,497.6L712.3,496.8L711.3,493.8L709.8,492.2L709.1,489.3L708.1,488.5L707.9,487.5L706.9,487.0L706.3,485.4L702.5,482.4L702.3,480.4L701.0,479.3L700.7,477.7L698.5,476.3L697.7,475.1Z" fill="#c92424" fill-opacity="0.85"/>
    <path d="M829.0,208.6L869.4,183.6L871.6,184.8L872.9,184.7L874.7,184.3L876.5,182.3L877.6,182.8L880.0,181.9L881.6,182.6L881.7,183.7L882.8,184.7L886.9,184.5L890.0,182.9L893.4,184.3L896.1,183.9L897.5,183.0L898.0,181.3L899.4,180.5L899.8,178.0L902.0,177.3L902.5,175.9L904.2,175.2L905.0,175.8L904.6,177.0L905.2,178.4L904.5,180.2L905.5,181.5L907.5,182.7L908.9,185.3L910.5,183.9L912.1,185.4L912.2,183.8L913.0,182.6L915.2,182.8L915.1,180.5L916.1,179.5L916.2,178.4L918.1,179.7L917.7,181.5L919.4,182.6L921.8,182.7L922.9,185.1L921.2,186.7L921.4,188.7L918.0,188.8L917.8,190.7L918.5,192.8L918.1,194.6L922.0,198.8L923.5,198.5L922.9,200.2L923.8,202.0L922.9,202.7L923.1,203.6L924.2,203.2L924.7,201.6L926.2,202.2L926.6,200.8L927.5,201.8L929.3,202.2L929.1,203.7L928.0,204.1L928.5,205.0L928.3,205.7L930.4,206.5L930.9,207.7L929.4,210.0L928.2,209.5L927.6,210.5L928.9,211.4L930.8,215.5L933.0,217.4L933.2,218.4L932.7,219.6L933.8,220.3L933.5,220.9L932.9,220.4L931.2,221.2L930.1,224.3L928.5,225.0L927.1,224.1L923.2,223.3L921.6,223.8L918.0,231.7L918.3,232.7L912.2,232.0L910.5,230.9L908.8,231.3L865.2,264.6L863.0,263.4L862.3,261.8L861.6,262.1L861.2,260.7L859.1,258.7L858.1,258.7L855.5,256.5L854.2,255.1L853.6,253.4L852.6,253.0L851.5,250.0L850.7,249.4L858.2,242.3L858.5,236.2L854.4,227.4L855.0,226.4L854.7,225.1L852.6,223.9L851.3,221.9L849.9,220.9L849.7,219.6L848.7,218.8L848.4,217.1L847.9,216.8L847.4,208.8L845.4,208.7L843.0,214.1L836.6,217.1L836.4,215.8L835.4,215.1L835.6,214.3L834.2,213.7L833.8,212.9L833.1,213.1L832.5,212.2L831.3,212.2L829.9,210.6L830.0,209.9L829.4,209.7L829.0,208.6Z" fill="#e53333" fill-opacity="0.85"/>
    <path d="M937.7,222.3L968.0,158.1L1030.7,222.1L1029.8,222.5L1029.6,223.4L1028.3,223.0L1027.9,224.6L1028.2,225.0L1027.4,225.0L1026.9,226.5L1025.9,226.8L1025.7,226.3L1025.1,227.4L1024.4,227.4L1024.1,228.7L1022.7,230.0L1022.5,230.9L1021.8,230.4L1021.8,231.2L1013.8,224.5L1007.1,230.8L1005.9,230.1L1002.8,231.0L999.6,230.1L997.5,228.0L993.8,226.6L992.0,228.0L979.6,221.8L974.5,221.9L971.6,223.0L963.1,224.3L963.3,226.2L960.4,226.9L958.1,230.2L956.2,230.3L955.7,231.6L950.8,232.4L952.0,235.0L951.8,235.7L949.6,230.3L948.0,229.5L947.2,227.6L945.3,225.6L939.3,221.8L937.7,222.3Z" fill="#b91c1c" fill-opacity="0.85"/>
    <path d="M745.8,445.4L746.1,444.4L793.7,413.9L795.0,416.0L795.0,420.7L796.4,424.2L798.6,426.0L802.2,426.6L803.9,428.2L806.2,429.1L812.4,427.8L816.6,429.0L819.3,430.9L819.5,433.4L821.4,435.8L821.3,437.6L822.2,440.9L825.8,442.5L827.9,444.8L825.5,448.9L824.4,449.1L821.5,451.6L852.2,476.2L851.4,476.7L850.1,476.4L850.4,476.9L849.3,480.0L852.8,483.5L854.4,480.5L858.7,483.3L853.7,484.5L863.9,494.7L860.8,503.0L860.1,501.7L857.2,501.5L857.5,500.6L856.7,499.9L856.2,502.3L854.2,503.5L854.2,502.7L853.0,502.8L852.2,504.5L850.3,505.3L851.3,507.2L850.3,509.0L849.9,509.3L847.7,506.9L846.2,508.1L846.0,509.8L846.6,510.9L850.3,512.0L851.0,514.8L852.2,516.5L831.4,511.5L827.0,509.8L810.5,508.5L810.8,507.4L810.2,506.3L811.6,504.2L811.4,503.6L813.1,502.9L811.1,501.5L811.4,500.6L810.5,500.2L810.3,498.7L809.7,498.2L811.0,495.1L810.8,493.0L810.3,491.2L809.5,491.1L809.9,489.7L809.4,489.7L807.6,486.9L808.1,486.3L807.6,485.4L808.4,484.6L808.3,483.7L808.8,483.5L808.9,481.7L809.7,480.6L809.4,479.5L810.0,478.7L809.6,478.3L809.7,476.6L811.5,475.5L812.7,473.8L812.4,471.8L810.7,469.9L808.6,471.1L807.1,469.5L806.6,470.2L804.5,469.9L804.1,470.7L803.5,469.4L802.6,469.6L802.8,468.9L802.3,468.4L801.6,468.7L800.8,467.8L798.6,467.6L798.4,468.5L795.6,467.7L794.7,467.9L795.1,468.5L792.4,469.0L790.9,468.1L789.8,468.2L789.6,467.1L788.9,466.6L787.7,466.6L788.0,467.2L787.5,467.6L786.4,467.3L786.8,468.1L785.8,468.8L785.1,468.1L782.5,468.9L779.0,468.9L777.4,467.9L774.7,467.5L773.0,466.6L772.9,465.3L771.0,464.3L768.9,462.0L768.0,462.0L767.4,461.6L767.6,461.0L765.8,459.5L765.3,458.8L765.6,457.9L764.7,457.4L764.5,455.9L762.2,454.8L762.4,453.1L760.3,451.3L760.4,450.0L759.4,449.3L759.0,449.8L758.4,448.5L755.3,446.6L753.9,447.0L753.1,445.9L751.6,445.7L751.6,446.4L750.7,446.6L750.4,445.7L749.1,446.3L748.0,445.3L747.2,445.7L745.8,445.4Z M848.8,479.4L849.4,477.8L848.9,477.3L847.9,478.4L848.8,479.4Z" fill="#b91c1c" fill-opacity="0.85"/>
    <path d="M515.5,336.4L515.6,335.2L517.6,334.3L517.8,333.1L518.6,332.9L518.0,331.4L518.3,330.3L517.2,328.3L518.8,326.7L519.1,325.2L520.3,324.7L519.5,322.8L521.0,323.3L521.0,322.5L522.2,322.2L522.8,321.0L522.4,320.2L523.5,319.3L522.9,317.5L524.2,317.6L525.4,315.8L526.9,315.4L520.2,305.1L519.5,301.8L521.2,300.8L520.0,295.6L557.0,286.2L563.2,286.5L567.3,303.0L573.0,308.3L575.0,308.0L582.8,312.2L603.5,318.5L543.7,374.6L540.3,371.7L539.6,370.1L537.7,368.1L536.2,367.7L533.7,365.6L530.2,364.5L528.2,362.0L526.7,361.8L529.9,354.3L527.8,351.5L527.5,350.2L525.5,350.1L524.1,349.4L524.4,348.5L523.6,346.5L521.2,345.9L521.8,344.1L520.4,343.1L518.3,343.1L515.5,336.4Z" fill="#c42020" fill-opacity="0.85"/>
    <path d="M640.6,176.3L641.0,171.4L641.9,169.2L641.4,167.9L731.7,173.6L732.0,176.3L731.0,182.1L728.7,183.5L728.2,184.8L729.9,188.5L733.4,193.2L739.0,199.1L740.3,199.7L742.7,199.1L745.6,199.4L747.3,200.8L747.2,204.3L749.5,206.6L740.2,228.1L717.7,231.5L704.9,235.3L704.1,234.5L701.8,235.2L701.3,236.3L699.9,235.4L699.6,236.8L698.7,237.7L698.4,236.9L697.5,236.9L695.5,239.1L681.4,237.8L681.2,238.2L682.7,239.7L683.5,242.3L682.7,243.9L681.7,244.4L681.9,246.9L676.9,243.0L675.2,242.4L673.9,240.7L669.5,241.0L664.3,235.2L658.9,234.0L656.7,230.1L654.7,228.5L654.2,226.1L655.1,223.4L654.5,222.3L652.8,221.4L650.7,217.1L650.8,215.7L649.9,214.0L649.9,211.9L648.0,208.6L647.2,206.0L645.7,204.1L645.5,201.9L644.1,199.2L643.4,195.7L641.6,191.4L643.1,188.1L642.5,186.3L641.4,185.7L641.6,181.5L640.6,176.3Z" fill="#d42525" fill-opacity="0.85"/>
    <path d="M865.4,264.4L908.6,231.4L910.2,230.9L912.5,232.0L917.9,232.7L921.7,222.9L922.5,222.5L923.4,223.3L929.0,225.0L930.1,224.3L931.3,221.2L932.9,220.4L936.3,222.0L937.3,221.7L937.9,222.5L938.8,221.7L943.0,223.8L947.1,227.4L948.0,229.5L949.6,230.3L950.6,233.5L952.4,236.6L952.3,239.2L951.6,241.3L949.3,242.6L947.9,245.1L948.3,246.6L949.8,248.1L950.7,250.1L952.4,251.2L952.8,253.9L954.4,254.6L954.4,256.4L956.8,256.2L955.7,258.6L956.7,259.5L956.5,260.2L957.4,260.7L956.6,261.3L957.2,262.2L954.9,261.7L954.8,265.7L953.8,266.6L955.4,268.0L955.2,268.8L956.2,269.5L956.2,270.6L956.9,272.0L957.6,272.3L957.9,273.7L957.5,275.2L958.0,277.6L957.6,279.2L958.3,280.6L957.0,282.8L958.4,284.2L959.8,287.3L962.3,287.9L962.8,288.6L961.1,291.0L961.1,292.2L962.6,294.0L963.8,293.9L963.7,295.0L964.4,295.7L965.9,295.1L966.6,297.1L967.7,296.6L968.1,297.4L967.7,298.6L970.0,299.8L970.3,300.7L971.3,300.8L971.5,301.9L974.2,303.0L976.2,303.0L976.4,303.6L974.8,304.6L978.0,306.8L978.2,308.4L981.6,312.8L984.0,313.2L984.0,314.4L984.7,313.0L986.3,313.1L986.8,314.0L987.7,314.2L986.9,314.9L988.1,315.6L989.3,315.2L989.6,316.2L990.3,315.9L989.7,317.0L990.6,317.9L990.1,318.5L990.4,319.9L989.8,320.3L990.0,321.5L989.1,320.6L988.8,321.5L987.3,320.6L986.2,320.8L984.2,318.3L979.2,317.7L978.7,318.1L979.0,319.0L978.5,319.8L977.2,320.3L976.7,321.2L973.2,321.5L970.8,322.8L969.4,324.4L966.6,325.1L964.2,324.6L960.3,326.2L937.4,319.7L937.1,317.8L935.9,318.5L930.4,318.4L928.6,320.4L926.7,318.6L922.6,318.5L919.4,314.4L910.3,314.3L904.3,305.0L902.3,304.5L901.0,303.2L899.1,304.6L893.3,303.6L886.2,304.4L885.2,303.3L881.2,292.2L894.3,283.8L893.1,283.1L892.8,281.2L891.6,280.3L889.3,280.1L887.4,278.0L885.6,278.0L885.5,277.1L883.6,277.3L881.2,275.8L880.5,274.7L878.3,273.7L877.9,272.7L876.0,271.5L876.0,270.3L874.0,269.3L873.6,268.1L871.6,266.3L867.4,265.8L865.4,264.4Z" fill="#d42525" fill-opacity="0.85"/>
    <path d="M929.8,417.0L930.4,413.3L934.2,408.8L937.6,406.2L939.0,402.8L942.8,397.2L943.9,396.5L944.7,392.3L952.3,383.5L952.2,382.8L960.5,377.4L962.6,373.6L970.4,366.5L970.7,365.7L969.3,361.9L971.2,355.4L973.0,351.5L973.2,347.7L974.7,343.6L977.6,338.8L980.5,336.3L985.1,330.3L986.5,326.4L987.5,325.9L990.0,325.3L991.4,326.9L992.1,328.6L994.0,330.8L993.9,333.0L995.2,333.9L994.2,335.1L995.1,337.7L995.9,338.0L997.7,336.9L997.9,337.7L997.0,338.4L997.0,339.3L998.7,339.2L998.4,340.6L1002.6,340.1L1002.7,340.7L1001.4,341.2L1001.3,341.8L1003.6,342.4L1004.4,341.5L1004.9,341.9L1006.5,341.0L1006.4,340.1L1007.3,341.2L1008.3,340.5L1010.1,340.9L1010.1,340.2L1009.2,339.5L1009.5,339.2L1013.0,340.8L1013.3,341.4L1012.8,342.2L1016.6,344.4L1017.4,346.0L1017.0,348.6L1017.4,349.5L1019.1,349.4L1019.9,348.4L1021.0,351.0L1022.0,350.7L1021.5,352.4L1020.6,351.4L1020.2,351.6L1020.5,352.8L1021.2,353.1L1020.3,353.8L1021.1,354.3L1021.2,356.0L1022.1,356.5L1022.4,360.1L1024.5,361.0L1025.1,359.1L1025.9,359.2L1026.5,361.1L1026.3,363.4L1025.6,364.8L1025.9,366.5L1039.7,366.6L1040.0,367.1L1040.7,366.5L1054.8,366.5L1049.7,373.3L1043.7,383.2L1036.8,389.6L1030.7,400.7L1028.0,407.0L1027.5,409.5L1027.8,414.0L1027.1,419.8L1024.5,424.1L1022.7,431.2L1024.7,432.9L1029.0,439.2L1029.7,442.7L1028.9,446.3L1025.3,450.9L1023.4,451.9L1019.3,452.6L1017.2,455.5L1012.6,459.0L1010.7,464.1L1006.8,467.6L1002.5,468.2L999.2,470.5L993.9,459.7L994.5,458.4L997.5,455.9L998.1,453.9L997.4,452.6L994.4,451.3L990.1,451.3L987.6,450.0L984.4,449.9L978.8,445.5L976.0,444.2L974.1,441.0L971.9,439.5L971.7,438.7L970.0,437.6L968.5,438.0L967.2,437.1L967.7,435.6L966.9,434.8L966.1,434.9L966.6,433.7L964.2,434.7L964.0,434.2L964.8,432.9L962.6,433.6L963.1,431.5L962.6,431.5L961.6,433.3L960.7,433.5L957.0,431.6L954.2,431.0L953.6,430.1L952.2,429.7L951.5,427.8L949.8,428.6L950.2,427.0L949.4,426.2L942.1,424.9L938.9,422.5L932.5,421.1L930.4,419.8L931.1,418.6L929.8,417.0Z" fill="#ef4444" fill-opacity="0.85"/>
    <path d="M419.3,69.2L420.4,69.4L421.1,68.8L421.4,66.6L423.3,67.1L425.3,64.0L427.3,64.3L429.8,62.7L430.3,63.6L432.1,61.3L430.8,59.7L431.9,59.0L432.0,57.9L432.9,57.3L434.0,57.5L434.2,59.4L435.0,58.8L435.4,59.3L437.2,58.9L437.8,57.7L439.0,57.5L439.3,56.2L440.4,56.9L440.5,57.8L441.6,57.8L442.5,56.2L443.9,55.7L444.3,55.0L446.8,55.4L448.3,54.4L449.9,54.7L450.5,53.8L451.6,53.9L452.4,52.5L454.1,52.4L453.8,51.1L455.4,50.1L456.9,50.9L457.1,51.9L458.5,51.8L460.2,50.3L461.7,50.5L462.3,49.8L463.6,50.4L465.1,49.0L465.3,48.1L466.6,47.8L467.2,48.2L470.5,47.6L471.0,48.4L470.0,49.5L470.1,50.1L473.0,49.8L473.8,49.4L474.5,47.4L475.2,47.1L474.9,46.2L475.8,43.8L476.8,42.8L479.6,41.9L480.5,40.0L482.2,40.8L483.2,43.8L482.4,44.2L482.4,44.8L484.3,46.8L485.7,45.8L485.4,45.3L486.2,44.5L487.4,44.9L488.8,44.3L489.6,45.2L490.5,44.8L492.2,46.0L493.6,44.8L497.0,43.9L497.6,43.0L510.0,43.8L508.3,111.2L508.6,112.0L509.4,111.9L511.1,114.2L513.3,115.5L516.9,120.1L517.1,121.4L518.5,121.2L518.9,122.1L517.8,122.1L517.9,122.9L519.3,124.3L519.8,124.0L520.4,125.0L520.4,126.0L521.7,125.5L513.1,147.0L506.9,164.5L506.7,175.2L493.8,185.3L493.0,185.0L492.8,184.1L491.8,184.0L491.8,183.2L490.5,182.1L488.9,182.2L488.7,179.8L487.9,180.3L485.5,179.1L485.2,178.2L480.9,173.5L478.5,173.2L476.3,170.7L476.4,168.6L475.3,167.5L476.0,166.6L475.6,164.8L474.6,163.7L474.9,162.6L473.5,161.2L472.3,160.8L473.2,160.1L471.4,158.7L471.7,157.6L470.7,157.3L470.7,155.1L471.3,154.4L470.4,153.6L470.2,151.1L469.1,151.2L469.0,149.5L468.3,149.0L469.0,148.6L468.8,148.0L469.8,147.9L470.2,146.4L469.0,145.3L469.7,144.5L469.1,143.5L470.0,142.6L468.7,141.3L469.0,140.3L469.7,140.6L470.1,140.1L469.9,139.4L468.8,139.0L469.0,135.1L469.6,134.5L469.0,133.5L470.4,132.4L469.9,131.4L471.0,128.8L471.0,127.4L469.7,126.4L469.4,123.3L468.2,123.0L467.8,121.8L466.9,122.1L467.1,120.4L465.1,118.8L466.8,117.0L465.1,116.4L465.1,115.5L465.7,114.7L464.8,114.3L465.5,113.7L465.8,111.0L464.8,110.4L465.1,107.8L464.3,107.0L464.9,105.6L463.6,105.1L463.4,104.3L464.0,103.5L462.5,101.8L462.7,100.6L461.4,100.3L461.2,99.1L460.0,98.7L460.3,97.7L459.5,97.2L460.0,95.7L458.8,94.7L458.7,94.0L459.4,93.9L458.9,93.3L459.0,92.3L458.3,91.9L458.6,90.6L457.9,90.0L458.4,89.6L457.6,89.5L457.4,88.3L456.9,88.4L455.9,87.4L455.6,87.8L455.0,87.0L456.3,85.8L456.6,86.3L457.3,85.9L455.8,81.9L456.7,79.8L453.7,79.8L452.3,80.6L450.8,80.1L449.5,81.1L447.2,80.8L447.4,79.6L448.2,78.7L447.7,77.3L448.7,76.3L448.0,74.1L446.7,75.1L447.1,73.2L446.8,71.9L448.0,70.1L450.7,69.9L451.3,68.9L451.0,68.0L444.6,68.5L444.2,69.4L440.3,70.0L439.6,70.8L438.3,70.8L437.9,70.1L437.2,70.5L436.7,69.5L434.9,70.4L433.8,69.8L432.7,70.4L428.6,70.5L427.4,71.1L426.9,72.2L425.2,71.8L425.1,72.4L423.9,72.5L423.5,73.4L421.6,73.3L420.3,71.8L419.3,69.2Z M465.9,114.1L465.9,114.7L466.2,114.2L465.9,114.1Z" fill="#c92424" fill-opacity="0.85"/>
    <path d="M490.4,213.5L505.0,200.1L505.5,201.4L508.0,201.6L507.6,203.5L509.1,203.8L509.3,205.2L511.1,206.8L513.2,207.1L513.1,208.0L514.0,207.9L515.2,209.0L517.1,211.8L517.9,215.9L520.1,215.6L523.3,217.0L524.9,218.5L525.5,221.1L527.5,220.3L531.9,222.1L536.9,226.6L537.7,228.4L540.6,229.4L544.3,233.4L546.7,233.3L549.4,234.3L549.3,235.4L550.6,237.4L552.3,238.1L555.9,242.7L557.9,242.6L559.0,243.4L558.7,244.6L559.4,246.2L561.4,246.2L561.1,249.2L562.7,250.6L562.8,252.4L565.3,253.3L567.6,255.2L562.9,260.2L563.1,261.8L562.3,262.7L559.7,263.5L559.4,265.8L558.4,266.4L558.2,267.5L557.2,267.8L554.5,274.2L548.5,281.5L547.6,282.0L545.7,285.8L545.9,286.5L544.2,288.6L544.5,289.3L538.0,290.9L538.1,284.9L533.2,285.8L528.4,284.6L527.8,285.2L520.8,284.3L517.3,287.1L512.6,285.8L509.3,283.4L505.4,278.1L495.1,287.2L491.7,268.8L501.3,260.3L504.4,254.9L506.0,249.1L506.0,243.7L504.6,237.6L501.9,233.0L497.1,227.7L494.9,226.7L494.3,217.9L492.2,216.9L491.8,215.2L490.4,213.5Z" fill="#b91c1c" fill-opacity="0.85"/>
    <path d="M640.6,539.7L641.1,538.8L640.8,538.0L642.5,537.3L641.8,535.8L643.3,535.6L642.2,535.0L642.1,533.5L643.0,533.5L642.9,532.5L644.0,531.9L644.3,531.1L646.2,531.1L650.4,528.0L655.3,526.4L657.0,522.2L668.0,512.4L665.6,501.8L668.3,499.7L672.0,498.8L672.1,492.3L674.5,490.9L675.0,489.6L677.1,488.3L697.7,475.1L700.7,477.7L700.9,479.2L702.4,480.4L702.6,482.4L706.4,485.4L706.9,487.0L707.9,487.5L708.1,488.5L709.1,489.3L709.8,492.2L711.5,494.0L712.3,496.8L713.0,497.6L713.5,500.0L716.6,502.2L718.2,504.9L720.4,505.0L721.7,506.8L722.8,507.3L723.3,508.6L725.0,509.7L725.5,511.3L727.9,513.6L728.7,518.3L732.3,522.6L733.5,525.0L734.0,527.8L734.6,529.6L735.6,530.4L737.0,535.9L740.1,539.2L738.3,540.1L727.5,555.6L724.8,554.6L723.1,552.6L718.2,551.4L717.5,549.5L719.7,547.5L720.3,545.3L720.3,542.4L717.3,541.1L715.4,537.1L715.3,535.9L712.1,534.0L708.8,529.6L685.3,550.8L677.1,557.8L674.5,559.2L664.4,568.6L664.0,569.5L663.4,569.5L663.6,568.6L663.2,567.4L663.1,568.8L662.2,569.2L662.1,567.3L657.9,567.9L652.5,565.6L652.0,565.0L652.7,564.1L652.1,563.5L650.6,564.5L651.1,563.3L650.1,562.9L650.1,561.7L648.6,562.1L646.9,560.8L643.2,556.2L643.0,555.0L642.1,554.1L642.1,553.0L642.7,552.5L643.9,553.6L644.5,552.6L643.1,551.7L644.6,551.3L646.3,549.6L645.2,548.6L644.3,548.7L644.0,547.9L644.3,547.4L645.1,548.3L645.5,547.7L644.4,546.4L644.9,544.1L644.0,542.9L643.7,540.8L643.1,541.6L641.6,539.9L640.6,539.7Z" fill="#ef4444" fill-opacity="0.85"/>
    <path d="M986.4,287.6L987.7,285.7L988.0,283.3L987.5,282.6L988.1,281.5L989.2,281.1L989.2,281.6L990.3,282.4L990.4,281.5L991.6,280.5L992.1,277.1L991.6,276.1L992.9,274.8L995.7,274.4L995.7,273.7L996.4,273.8L997.1,272.8L998.7,272.7L999.8,271.6L999.9,270.7L1001.5,270.2L1001.4,268.4L1002.3,268.0L1002.8,266.2L1001.5,265.8L1001.5,264.2L1001.1,263.7L1002.4,263.0L1002.3,262.2L1003.6,261.6L1004.4,259.9L1006.0,260.0L1006.2,259.4L1005.6,259.1L1006.2,256.4L1007.0,255.6L1007.8,256.3L1008.6,254.8L1007.9,252.0L1008.4,251.5L1008.2,250.8L1008.9,251.0L1009.8,250.1L1009.9,247.9L1010.6,247.5L1010.8,246.5L1013.4,244.8L1013.4,245.7L1013.9,245.8L1015.0,242.8L1017.0,240.4L1018.7,240.4L1018.9,239.1L1020.3,238.8L1020.1,236.0L1020.5,235.2L1021.2,235.3L1020.2,233.5L1021.5,232.2L1021.6,230.4L1022.5,230.6L1023.1,229.2L1023.9,229.0L1024.4,227.3L1025.9,226.3L1026.9,226.3L1027.4,224.8L1027.9,225.1L1027.7,224.1L1028.4,222.8L1029.5,223.4L1030.3,222.0L1118.4,311.0L1117.0,311.9L1110.9,312.6L1093.4,319.4L1080.0,327.7L1071.9,333.9L1065.2,340.1L1052.8,353.2L1042.2,366.5L1040.7,366.5L1039.9,367.2L1039.6,366.6L1025.8,366.5L1025.6,364.7L1026.3,363.4L1026.5,360.9L1026.0,359.2L1025.3,358.9L1024.3,361.0L1022.3,360.0L1022.1,356.5L1021.2,355.9L1021.0,354.3L1020.3,353.9L1020.8,353.1L1020.2,351.5L1021.5,352.3L1022.0,350.7L1021.1,351.1L1019.9,348.5L1019.1,349.5L1017.2,349.3L1017.4,346.0L1016.6,344.4L1013.5,342.8L1012.7,342.2L1013.0,340.8L1010.9,339.9L1010.2,338.9L1010.7,337.0L1010.2,335.9L1006.7,331.7L1006.1,331.7L1006.5,330.6L1006.1,329.9L1004.7,329.8L1003.6,328.6L1003.4,326.6L1001.5,324.4L1000.6,321.5L1000.9,320.9L1000.2,320.6L1000.7,319.8L999.3,317.6L999.7,316.3L1000.7,316.2L1001.2,315.3L1000.7,314.9L1000.9,314.3L999.3,313.7L998.8,312.8L999.6,311.4L999.4,309.3L1000.1,308.4L998.9,303.0L995.7,301.3L995.1,302.4L994.4,301.4L993.5,301.3L993.7,300.6L992.9,300.7L992.3,298.7L990.8,297.8L991.5,296.6L991.0,295.6L991.6,294.5L990.0,294.6L990.9,292.7L989.3,292.1L988.4,290.7L987.3,291.0L987.8,289.4L986.4,287.6Z" fill="#d42525" fill-opacity="0.85"/>
    <path d="M664.8,568.6L674.5,559.2L677.1,557.8L709.0,529.5L709.3,530.8L712.1,533.9L715.3,535.9L715.4,537.1L717.2,541.0L720.3,542.4L720.3,545.3L719.7,547.5L717.5,549.5L718.3,551.5L723.1,552.6L724.8,554.6L727.5,555.6L732.9,547.8L735.0,552.4L735.8,553.5L736.5,553.4L736.9,554.9L736.3,556.6L738.4,558.2L739.3,561.2L738.5,564.1L738.7,567.0L738.0,568.4L738.5,571.0L736.6,573.9L738.5,576.2L740.6,580.3L741.5,583.5L741.5,586.8L739.5,587.3L738.9,588.2L736.2,595.8L736.6,597.4L738.5,596.7L739.6,597.4L737.5,600.7L737.6,602.6L736.6,602.9L736.1,603.8L734.8,603.7L734.3,604.9L732.4,605.8L733.1,606.9L732.0,608.1L731.6,610.4L729.4,610.1L729.1,608.9L726.2,608.8L723.9,609.6L722.3,615.4L722.1,619.5L710.4,618.3L710.6,619.4L711.6,619.9L712.3,621.4L711.8,623.3L712.8,625.9L710.7,629.2L708.8,630.6L708.8,631.4L709.3,632.2L709.3,635.6L710.3,635.7L710.1,637.0L712.3,640.1L711.8,640.5L713.0,641.6L713.6,640.8L713.8,641.6L714.8,641.4L715.1,642.2L716.7,642.7L717.5,642.4L717.7,642.9L716.7,643.3L716.6,644.0L717.8,643.5L718.1,644.6L719.0,644.4L720.0,645.7L718.7,646.4L719.6,647.3L719.0,649.6L719.5,650.4L719.2,651.0L718.1,650.2L717.9,649.1L716.7,649.5L716.8,651.2L718.2,651.9L717.8,653.8L719.0,653.1L720.1,653.4L721.1,651.9L722.2,652.3L723.2,651.7L724.1,653.2L726.3,652.4L726.5,653.3L723.3,655.1L728.7,657.8L728.5,658.8L726.0,662.2L726.6,663.6L727.7,663.9L730.8,662.9L731.8,663.6L753.5,663.6L754.1,666.4L753.5,670.5L751.4,674.0L747.7,676.9L747.3,680.0L740.7,672.4L736.2,671.0L730.3,671.5L729.2,672.2L723.8,670.9L719.0,665.2L714.1,663.4L712.7,660.3L710.7,658.9L709.3,659.0L707.0,661.7L705.1,662.5L701.5,661.6L698.9,659.7L696.8,659.3L697.0,658.5L696.2,657.1L693.7,657.4L692.5,656.7L692.0,655.8L692.3,654.2L691.5,652.6L691.9,650.1L692.8,649.3L691.5,648.7L691.1,647.0L689.9,646.2L691.3,644.4L692.1,645.2L693.0,644.8L692.9,643.9L692.0,644.2L691.4,643.7L691.8,641.7L691.2,641.1L692.4,640.4L691.2,640.3L690.3,638.0L688.9,636.9L688.3,635.5L686.2,635.1L687.6,633.7L685.5,630.6L687.1,629.3L687.1,626.8L688.7,626.3L687.8,625.2L689.3,625.4L689.9,624.3L690.9,624.4L690.3,623.1L691.5,622.1L690.9,620.5L691.0,618.2L689.3,617.9L689.9,616.9L689.7,614.7L688.9,614.7L688.5,613.9L690.0,612.3L690.0,611.5L688.3,610.6L687.5,609.3L687.0,609.7L687.3,610.6L684.9,611.5L685.6,610.9L685.7,609.7L684.7,609.7L684.7,608.4L682.6,607.1L683.5,606.0L681.3,603.8L681.9,602.4L681.8,601.1L677.4,595.1L676.9,592.5L678.3,591.2L678.1,590.5L677.2,590.3L677.5,589.2L678.5,589.8L678.6,588.8L679.4,588.9L679.2,588.0L680.3,587.0L678.2,586.1L672.8,580.2L671.8,578.2L672.9,577.3L672.6,576.2L671.5,576.5L671.0,575.7L669.6,576.2L665.1,572.6L665.9,571.0L664.9,570.3L665.2,569.3L664.8,568.6Z" fill="#bf1e1e" fill-opacity="0.85"/>
    <path d="M731.4,190.6L753.9,174.2L754.8,174.3L754.5,177.2L753.5,179.7L754.5,180.8L753.5,183.9L754.4,186.0L758.8,184.7L759.5,181.2L761.4,179.0L762.9,179.2L765.0,183.5L768.0,186.4L770.0,185.7L770.1,183.8L772.3,183.9L772.3,185.8L773.0,185.6L773.7,184.0L772.7,183.9L772.7,182.4L773.4,183.1L775.4,182.2L775.9,182.6L775.2,183.1L775.2,184.2L775.8,184.4L776.9,183.1L777.9,183.1L778.3,181.7L779.9,182.8L781.1,185.2L781.6,184.3L786.0,183.5L786.9,180.7L789.5,181.4L790.1,179.7L788.1,175.4L787.3,175.4L786.8,172.5L785.8,170.2L809.3,159.4L809.9,159.9L809.6,160.6L810.9,161.1L811.2,162.3L812.4,162.4L813.5,163.8L814.1,165.3L813.6,166.4L813.8,167.3L814.6,167.6L815.5,170.3L814.4,169.9L815.3,172.9L817.3,174.5L817.5,175.7L817.8,175.3L818.4,178.0L820.2,179.6L820.4,179.1L822.3,180.3L821.8,181.3L822.6,181.9L822.8,183.4L822.4,185.2L822.9,186.0L822.2,187.3L822.8,187.6L823.0,188.8L822.6,190.3L823.1,191.3L822.6,191.8L823.5,192.3L823.0,193.7L823.3,195.7L823.7,196.6L824.1,196.2L824.7,197.2L825.4,197.2L825.6,199.1L826.8,199.8L827.0,201.9L827.8,202.9L829.7,203.3L829.9,205.1L829.4,205.6L829.9,206.5L829.5,208.0L829.0,208.2L829.5,209.0L823.1,213.0L823.1,214.1L816.7,214.1L816.4,216.3L818.3,219.4L818.5,221.3L813.7,220.9L810.6,222.9L807.1,223.1L804.7,224.9L805.6,226.6L805.9,230.4L806.7,231.8L805.3,232.2L805.6,236.4L803.2,240.6L801.7,240.4L802.1,242.0L800.0,246.1L780.9,261.7L776.9,261.4L774.5,259.9L774.2,261.1L774.9,261.8L771.7,262.2L768.0,263.9L767.8,264.5L760.4,265.5L757.8,267.9L736.0,247.0L733.0,245.3L749.4,206.6L747.2,204.3L747.2,200.7L745.5,199.4L742.7,199.1L740.2,199.7L739.0,199.1L731.4,190.6Z" fill="#d12828" fill-opacity="0.85"/>
    <path d="M726.4,79.4L727.4,78.9L728.4,76.1L728.2,74.9L726.9,73.4L728.0,70.9L726.8,70.0L726.9,67.6L747.5,95.5L745.0,118.5L783.9,119.1L783.6,119.7L785.5,124.2L786.7,124.7L786.8,125.7L788.6,125.9L788.5,127.0L789.6,128.3L791.7,129.1L791.4,130.6L794.2,134.6L793.9,135.1L794.5,136.4L796.1,137.7L796.0,138.4L796.6,139.0L796.1,139.3L796.3,141.2L798.3,142.6L798.7,144.0L799.5,144.5L799.2,145.1L800.6,145.9L800.7,147.0L802.4,147.2L802.0,148.1L804.4,150.2L805.5,150.4L805.8,151.2L804.9,153.6L805.7,154.9L808.4,156.7L808.6,157.6L807.6,158.4L809.3,159.4L785.9,170.2L787.0,173.0L787.0,174.8L788.2,175.4L790.2,180.2L789.6,181.4L786.9,180.8L786.1,183.5L781.7,184.3L781.6,185.1L781.0,185.2L779.9,182.8L778.4,181.8L777.9,183.1L777.0,183.1L776.5,184.0L775.2,184.4L775.2,183.1L775.8,182.6L775.3,182.2L773.4,183.1L772.7,182.7L772.8,183.9L773.9,183.9L773.0,185.6L772.3,186.0L772.2,183.9L770.1,183.8L770.1,185.4L767.9,186.4L765.0,183.5L763.0,179.3L761.3,179.0L759.5,181.1L758.8,184.7L754.4,186.2L753.5,183.9L754.5,181.1L753.5,179.7L754.5,177.2L754.8,174.5L754.2,174.2L731.4,190.6L728.1,184.8L728.7,183.4L731.0,182.1L732.0,176.3L731.5,173.0L732.4,171.6L731.5,168.0L731.5,166.1L729.2,162.6L729.7,158.7L728.5,155.3L730.1,151.6L729.8,148.6L731.1,147.6L731.8,145.8L734.4,143.5L734.6,142.6L733.5,140.9L733.1,137.8L731.6,133.7L731.5,131.0L732.2,129.5L731.8,124.8L730.6,123.5L728.1,117.8L728.4,116.9L732.2,114.9L733.4,112.9L733.2,111.6L731.4,110.1L731.2,108.3L731.4,102.4L733.1,100.5L733.7,98.2L732.8,95.8L733.3,94.8L733.1,92.5L732.3,91.6L732.3,89.9L731.3,90.2L730.5,89.5L730.8,88.5L729.7,85.7L730.3,84.6L729.2,84.6L729.0,83.1L727.6,81.6L728.3,80.0L727.2,80.6L726.4,79.4Z" fill="#bf1e1e" fill-opacity="0.85"/>
    <path d="M493.7,188.1L493.8,185.3L506.7,175.2L506.9,164.5L513.3,146.4L521.7,125.5L523.9,126.7L523.5,127.9L524.1,127.8L526.6,132.6L527.4,132.5L527.6,131.2L529.0,133.6L531.9,133.5L531.5,134.7L532.4,136.3L532.2,136.9L533.1,137.2L532.8,138.4L534.2,138.5L534.8,139.3L534.1,141.7L536.0,142.0L536.5,143.3L538.9,144.7L539.1,145.6L539.9,146.3L541.0,146.1L545.1,149.9L546.5,149.7L548.7,150.9L549.4,150.2L550.7,150.9L550.9,152.4L553.7,152.4L555.1,153.6L555.5,155.4L556.5,155.4L558.2,159.1L560.6,160.7L560.7,161.7L562.4,162.5L563.4,162.0L564.1,163.9L565.8,163.0L566.1,163.7L567.2,163.7L568.5,166.1L569.1,163.9L571.2,163.1L571.7,162.1L572.5,163.7L573.8,164.0L574.1,163.5L574.6,164.6L575.9,164.6L577.1,166.6L577.5,166.1L578.6,166.2L579.2,167.5L584.1,168.1L584.3,168.8L585.1,168.5L586.7,169.4L587.6,168.6L589.0,170.3L590.0,170.1L592.6,171.9L593.1,171.1L595.3,170.4L595.5,171.0L596.3,170.9L597.0,171.6L599.2,170.6L599.1,172.0L602.3,172.6L602.4,174.0L603.0,174.1L604.0,175.6L604.8,175.5L603.8,178.6L601.3,181.1L594.9,191.6L591.8,192.2L589.8,194.5L587.6,198.1L587.8,199.3L582.5,206.1L581.8,208.9L576.9,212.4L572.9,213.3L570.7,215.4L570.9,217.3L568.8,218.8L565.2,219.6L563.1,221.8L561.8,227.2L561.8,229.1L560.9,230.5L560.5,232.6L558.4,235.7L557.9,237.9L556.5,238.9L554.9,241.2L552.3,238.1L550.6,237.4L549.2,235.4L549.3,234.3L546.7,233.3L544.2,233.4L540.7,229.4L537.7,228.4L536.9,226.6L531.9,222.1L527.5,220.3L525.6,221.3L524.9,218.5L523.6,217.2L520.1,215.6L517.8,215.9L517.1,211.8L515.2,209.0L514.0,208.0L513.2,208.1L513.2,207.1L512.6,206.7L511.2,206.9L509.3,205.1L509.1,203.8L507.5,203.5L507.9,201.7L505.3,201.4L503.7,198.1L502.5,197.9L502.6,196.8L501.8,195.5L499.9,194.9L498.1,191.4L495.3,189.9L493.7,188.1Z" fill="#ef4444" fill-opacity="0.85"/>
    <path d="M797.3,259.2L797.5,248.0L800.6,245.1L802.0,242.1L801.7,240.2L803.3,240.5L805.6,236.4L805.3,232.1L806.6,231.6L805.9,230.4L805.6,226.6L804.5,225.0L807.1,223.1L810.6,222.9L813.7,220.9L818.4,221.2L818.3,219.4L816.4,216.3L816.7,214.1L823.0,214.1L823.0,213.1L829.2,209.2L830.0,209.8L829.9,210.5L830.7,211.6L832.6,212.1L833.0,213.0L833.8,212.9L834.1,213.7L835.2,213.9L836.7,217.1L842.8,214.2L845.3,208.7L846.2,208.4L847.6,208.8L848.0,216.6L848.8,218.7L849.7,219.5L849.7,220.7L850.3,221.5L854.8,225.4L855.0,226.4L854.5,227.5L858.5,236.1L858.3,242.4L850.8,249.5L852.5,251.6L852.6,252.9L853.9,253.8L854.7,255.9L855.7,256.7L856.4,256.6L856.2,257.0L858.0,258.8L859.2,258.7L861.2,260.7L861.5,262.0L862.2,261.7L862.7,263.1L863.8,263.5L864.4,264.5L865.9,264.4L867.4,265.8L868.7,265.5L868.9,266.2L871.7,266.3L873.6,268.1L874.0,269.3L876.1,270.3L876.0,271.4L876.9,272.1L872.5,279.9L865.3,280.0L849.7,290.1L847.1,291.1L846.9,286.9L845.8,283.8L845.8,280.7L836.7,283.2L835.5,283.1L834.8,282.2L834.7,280.3L834.0,279.0L834.1,277.3L832.7,275.0L828.1,273.7L826.7,269.0L824.5,266.0L823.7,265.6L814.2,265.5L811.5,263.8L809.8,265.4L797.3,259.2Z" fill="#e53333" fill-opacity="0.85"/>
    <path d="M616.7,305.6L633.9,264.5L634.6,264.2L637.6,266.0L640.8,265.0L642.8,266.9L644.7,267.5L646.1,267.3L646.8,266.6L647.0,265.6L645.6,264.5L644.5,262.2L643.7,262.0L642.3,259.8L641.5,259.8L641.7,258.7L639.8,257.5L639.0,255.7L644.5,246.2L649.3,246.0L653.0,242.5L655.2,242.3L656.8,243.2L657.0,243.9L659.3,244.4L661.3,249.3L659.8,250.9L659.2,252.6L663.1,258.2L663.6,258.2L665.7,262.2L669.4,261.3L672.7,261.3L682.7,263.6L682.8,264.2L688.4,268.1L691.9,272.2L695.3,278.1L699.3,280.3L700.6,279.9L703.4,283.3L703.8,286.2L708.6,295.3L708.2,297.3L706.4,298.7L709.9,300.6L709.6,301.8L708.3,302.4L707.8,303.8L708.2,304.8L709.3,305.4L705.1,307.3L704.5,309.6L705.0,312.5L703.5,323.4L701.5,327.3L701.7,331.8L705.4,332.2L705.9,328.5L707.4,328.5L707.6,326.7L708.9,326.3L709.1,325.1L716.8,325.9L717.7,325.5L721.3,327.5L723.8,329.9L720.4,331.4L718.7,333.7L716.8,334.0L714.9,335.2L712.7,334.8L704.4,339.8L697.0,342.1L680.4,350.6L673.2,347.2L670.8,345.1L667.4,343.8L665.9,342.0L663.3,342.4L661.6,341.3L661.2,340.3L654.4,337.1L652.1,336.7L650.7,335.6L649.1,336.3L645.7,335.7L644.5,334.8L642.6,334.8L640.9,332.9L640.8,331.5L639.9,329.9L640.0,328.1L638.9,325.9L635.1,321.9L632.7,321.6L632.0,320.9L630.2,320.4L629.7,319.4L627.9,319.7L627.6,319.0L626.6,318.8L624.8,316.0L623.0,314.9L621.0,309.9L618.4,308.8L616.7,305.6Z" fill="#d42525" fill-opacity="0.85"/>
    <path d="M947.8,244.7L949.7,242.3L951.4,241.5L952.2,239.6L952.5,236.7L950.7,232.4L955.6,231.6L956.2,230.3L958.0,230.2L960.4,226.9L963.2,226.1L962.9,224.3L970.9,223.1L974.5,221.9L979.6,221.8L991.9,228.0L993.8,226.5L996.5,228.0L997.5,227.9L999.5,230.0L1002.9,231.0L1006.2,230.1L1007.0,230.8L1013.8,224.4L1021.6,231.5L1020.5,233.6L1021.6,234.7L1021.3,235.7L1020.5,235.3L1020.1,236.0L1020.2,237.2L1020.9,237.4L1020.2,237.8L1020.4,238.7L1019.0,239.1L1018.6,240.6L1018.3,240.2L1017.0,240.5L1015.0,242.8L1013.9,245.8L1013.3,245.7L1013.3,244.8L1010.7,246.7L1010.7,247.5L1010.0,248.0L1009.9,250.0L1007.9,251.9L1008.6,254.8L1007.9,256.2L1006.9,255.8L1005.9,257.4L1005.8,259.0L1006.3,259.3L1006.0,260.2L1004.5,260.0L1003.6,261.6L1002.3,262.1L1002.6,263.1L1001.1,263.6L1001.7,264.3L1001.3,264.6L1001.7,265.8L1002.9,266.1L1002.3,268.1L1001.6,268.4L1001.5,270.3L1000.0,270.7L999.9,271.6L998.6,272.8L997.2,272.8L994.9,275.0L993.8,274.6L992.5,275.1L992.6,275.7L991.6,276.3L992.2,277.0L991.4,279.9L991.6,280.5L990.2,282.4L988.9,281.3L987.9,281.9L987.5,282.7L988.1,283.1L988.2,284.2L987.7,284.2L987.7,285.8L986.5,287.6L987.2,289.2L987.8,289.4L987.3,291.0L988.4,290.8L989.2,292.1L990.8,292.7L989.9,294.2L991.6,294.5L991.0,295.6L991.7,296.7L991.0,296.8L990.8,297.9L992.2,298.8L992.9,300.6L993.7,300.7L993.6,301.3L995.0,302.4L995.7,301.4L998.9,303.2L998.9,304.6L999.9,305.7L1000.0,308.4L998.9,312.9L1001.0,314.4L1000.4,316.1L999.7,316.4L999.3,318.2L1000.7,319.7L1000.2,320.4L1000.9,320.9L1000.5,321.5L1001.3,324.4L1003.2,326.5L1003.6,328.7L1004.5,328.9L1004.8,329.8L1006.2,330.0L1006.6,330.8L1006.1,331.6L1010.2,335.9L1010.7,337.0L1010.2,338.9L1011.0,340.1L1009.4,339.3L1010.0,341.0L1008.3,340.6L1007.3,341.2L1006.6,340.2L1006.7,340.9L1004.9,342.0L1004.5,341.6L1003.7,342.4L1001.7,342.1L1001.2,341.4L1002.5,340.9L1002.5,340.1L998.4,340.6L998.6,339.2L997.0,339.4L997.0,338.4L997.9,337.7L997.7,337.0L995.9,338.0L995.1,337.7L994.2,335.1L995.0,333.9L993.9,333.0L994.0,330.8L989.0,323.6L989.5,323.0L988.8,322.1L988.7,320.8L989.9,321.4L989.7,320.2L990.4,319.8L990.4,317.9L989.6,317.1L990.3,316.1L989.5,316.3L989.2,315.3L988.1,315.6L986.8,314.9L987.1,314.2L986.2,313.1L984.7,313.0L984.0,314.6L983.8,313.1L981.5,312.8L978.2,308.4L978.0,306.8L974.7,304.4L976.3,303.6L976.2,303.0L974.2,303.0L971.5,301.9L971.2,300.8L970.3,300.7L970.0,299.8L967.7,298.5L968.1,297.4L967.7,296.6L966.4,297.3L965.9,295.3L964.4,295.7L963.6,295.0L963.8,294.0L962.6,294.0L960.9,291.8L962.8,288.8L962.3,287.9L959.8,287.3L958.4,284.2L956.9,282.8L958.3,280.6L957.6,279.2L957.9,273.6L956.2,270.5L956.2,269.5L955.2,268.8L955.3,267.8L953.8,266.7L954.8,265.6L954.9,261.6L957.1,262.2L956.4,261.1L957.3,260.7L956.3,260.2L956.6,259.5L955.7,258.6L956.8,256.4L954.4,256.5L954.3,254.6L952.9,253.9L952.4,251.4L950.7,250.1L949.8,248.1L948.3,246.8L947.8,244.7Z" fill="#e83d3d" fill-opacity="0.85"/>
    <path d="M889.2,129.2L887.9,122.0L889.0,121.2L930.5,121.5L968.0,158.1L937.7,222.3L937.3,221.7L936.3,222.0L933.6,220.9L933.7,220.1L932.8,219.6L933.2,217.5L931.1,215.7L928.9,211.2L927.8,210.7L928.0,209.7L929.7,209.9L931.0,207.7L930.5,206.5L928.4,205.7L928.1,204.1L929.1,203.6L929.2,202.1L927.3,201.6L926.7,200.8L926.1,202.2L924.7,201.6L924.1,203.2L923.1,203.6L923.0,202.7L923.9,201.9L923.0,200.2L923.5,198.6L922.0,198.6L918.3,194.7L918.5,192.6L917.9,189.2L918.5,188.5L921.4,188.7L921.3,186.7L923.0,184.9L921.9,182.7L919.6,182.5L917.6,181.2L918.0,179.5L916.2,178.5L915.0,180.5L915.2,182.9L913.1,182.5L912.1,184.0L912.1,185.2L910.5,183.9L909.3,185.3L908.4,184.8L907.6,182.7L904.7,180.5L904.5,179.5L905.2,178.2L904.7,176.6L906.2,172.2L907.0,167.9L908.6,165.4L908.6,162.5L909.0,161.1L909.7,160.3L911.1,161.1L912.9,160.8L913.8,159.5L911.7,157.6L911.7,155.9L909.9,154.6L910.7,152.7L908.7,152.2L907.3,150.6L905.0,150.9L903.5,148.7L901.6,148.2L900.2,146.8L898.0,143.3L897.0,138.9L894.7,134.1L889.2,129.2Z" fill="#c92424" fill-opacity="0.85"/>
    <path d="M447.3,278.8L457.9,267.3L463.0,267.3L465.7,265.4L470.9,269.6L483.4,270.2L491.7,268.8L495.2,287.1L497.6,285.5L505.4,278.0L506.8,279.5L507.8,281.6L510.4,284.4L512.6,285.8L517.2,287.1L518.0,286.9L520.8,284.3L527.8,285.2L528.4,284.7L533.2,285.8L538.3,284.9L538.0,290.9L520.1,295.7L521.2,300.9L519.6,301.9L520.2,305.1L527.0,315.4L525.3,315.9L524.2,317.6L522.8,317.7L523.6,319.3L522.5,320.2L522.8,321.0L522.1,322.2L521.1,322.5L521.3,323.4L519.5,322.9L520.4,324.8L519.2,325.2L518.8,326.7L517.2,328.4L518.4,330.3L518.0,331.4L518.6,333.0L517.9,333.2L517.6,334.2L515.6,335.3L515.5,336.5L518.3,343.1L520.6,343.2L522.0,344.3L521.3,345.9L523.6,346.5L524.4,348.5L524.2,349.4L525.5,350.1L527.6,350.2L527.8,351.5L530.0,354.4L526.7,361.8L524.4,363.1L522.9,362.6L521.1,361.5L519.9,359.4L516.4,358.2L513.3,355.1L512.5,351.8L512.7,348.8L511.0,347.2L509.7,344.1L507.0,341.2L506.2,335.1L504.8,330.8L498.5,325.3L496.4,324.6L496.0,321.2L488.4,314.5L484.2,312.6L478.7,308.2L476.1,308.7L474.7,308.2L472.8,306.4L470.4,305.1L464.2,299.5L461.1,294.4L459.0,292.9L455.9,293.3L453.6,292.4L452.2,290.2L451.8,287.9L449.8,285.4L449.7,284.3L450.5,283.2L448.5,282.0L447.3,278.8Z" fill="#dc2626" fill-opacity="0.85"/>
    <path d="M554.9,241.2L556.5,238.8L557.9,237.9L558.4,235.7L560.5,232.6L560.9,230.5L561.8,229.1L561.8,227.3L563.1,221.9L565.2,219.6L568.8,218.8L570.8,217.3L570.7,215.4L572.8,213.4L576.9,212.4L581.8,209.0L582.5,206.1L585.2,202.4L585.9,202.3L589.8,194.5L591.7,192.2L594.9,191.5L601.3,181.1L603.8,178.6L604.8,175.5L605.4,176.7L606.8,176.7L607.5,177.7L609.1,177.2L609.8,179.4L611.6,179.6L613.9,182.8L615.6,183.3L619.8,186.7L620.0,188.1L619.3,189.4L620.9,189.7L620.0,190.7L620.1,191.6L621.7,192.4L621.7,193.0L631.1,184.2L632.8,184.1L633.8,183.3L635.5,184.8L636.8,184.0L637.6,184.5L638.0,183.0L639.2,182.8L639.8,183.7L640.6,183.0L641.3,183.3L641.4,185.6L642.5,186.2L643.1,188.2L641.7,191.4L643.4,195.7L644.1,199.2L645.5,201.9L646.0,204.6L647.2,206.0L648.0,208.5L649.8,211.7L649.9,214.1L652.1,220.2L655.1,223.5L654.2,226.1L654.7,228.5L656.7,230.1L658.9,234.0L654.3,240.7L655.2,242.3L653.0,242.5L649.3,246.0L644.5,246.3L639.0,255.7L639.8,257.5L641.8,258.7L641.6,259.7L643.0,260.4L643.7,262.0L644.6,262.1L644.6,262.9L645.6,264.5L647.0,265.6L646.1,267.4L644.7,267.5L642.8,266.9L640.8,265.0L637.7,266.1L634.4,264.2L633.3,266.4L631.1,265.2L628.2,266.9L626.2,265.2L622.1,265.3L620.6,262.9L616.8,261.8L613.7,258.3L612.6,258.2L612.1,259.1L610.8,257.1L608.3,256.5L605.9,252.5L604.2,252.5L600.0,250.6L599.2,248.9L596.9,247.2L593.6,247.0L590.1,244.3L587.4,246.3L583.9,246.9L583.3,248.4L582.3,248.8L581.2,248.5L581.9,247.8L581.5,247.3L580.3,247.9L577.4,246.7L574.3,247.2L574.0,246.5L574.5,245.4L572.5,247.3L570.1,245.8L569.0,245.9L567.9,247.4L566.3,248.3L565.9,250.2L567.8,253.5L567.3,254.7L566.1,254.4L565.3,253.3L562.8,252.5L562.6,250.6L561.0,249.3L561.4,246.2L559.4,246.3L558.6,244.6L558.9,243.4L557.9,242.6L556.0,242.8L554.9,241.2Z" fill="#d92929" fill-opacity="0.85"/>
    <path d="M321.6,142.8L322.7,141.5L321.8,139.1L321.7,136.8L322.5,135.0L324.0,134.8L325.2,132.6L326.1,132.3L326.2,131.2L327.2,130.9L326.7,130.3L327.2,129.6L326.7,129.2L327.4,128.2L326.6,124.6L328.2,123.3L328.2,122.6L330.4,121.7L330.6,120.7L329.4,119.7L330.0,118.8L331.3,119.8L332.4,117.6L334.3,119.1L335.4,118.8L335.9,116.3L335.1,115.5L336.0,112.9L336.9,112.9L337.6,113.8L338.9,113.5L338.2,113.0L338.2,111.4L339.3,111.6L339.1,109.5L340.6,109.5L341.1,108.6L340.0,107.1L343.7,107.0L344.7,104.9L344.8,106.1L346.3,106.5L346.9,105.7L346.5,103.9L347.4,104.4L348.0,102.8L349.1,103.0L350.3,101.8L350.3,100.8L351.3,100.6L352.3,98.8L354.1,99.6L353.8,97.0L354.3,96.5L356.8,97.7L358.6,96.5L358.4,95.5L359.1,95.0L360.2,96.0L361.5,95.5L360.9,94.3L360.2,94.3L359.1,92.7L359.4,91.7L360.9,92.1L360.3,91.1L360.7,90.5L360.1,90.2L360.3,89.0L360.9,87.6L361.7,87.5L361.8,86.5L362.4,86.7L363.7,84.6L362.1,82.5L397.2,71.6L396.8,73.0L395.9,73.1L396.3,73.7L395.9,74.5L393.8,75.6L394.5,76.9L393.9,77.0L394.0,78.2L393.4,78.7L393.9,79.3L393.6,79.7L394.6,80.2L394.7,81.0L393.7,81.6L392.0,81.1L391.1,83.2L390.0,84.3L390.3,84.9L389.7,85.3L390.6,85.6L390.4,86.5L391.0,87.3L394.1,88.3L393.5,90.6L395.4,92.0L394.2,93.3L396.2,95.6L395.7,96.5L396.1,97.4L395.4,98.6L396.5,99.7L395.8,101.2L396.7,102.2L396.3,102.9L396.7,103.5L395.3,103.8L396.4,109.6L396.0,110.7L396.6,111.2L396.6,113.3L397.4,115.2L396.9,116.2L397.2,117.6L396.7,118.0L397.4,119.4L397.2,121.7L398.7,121.0L398.9,123.5L399.7,124.5L401.2,124.5L400.0,125.1L400.0,126.2L398.9,127.5L398.9,128.9L397.9,129.4L398.6,130.3L397.7,131.7L397.7,133.1L396.8,134.1L397.4,135.1L400.2,134.9L401.1,135.1L402.1,136.2L403.2,136.1L404.1,137.4L403.6,138.9L404.0,139.4L402.6,142.0L405.1,143.2L404.4,144.5L404.5,145.5L405.3,145.8L404.3,146.6L404.8,148.6L405.9,148.9L406.1,149.9L407.4,149.9L407.0,150.4L408.0,150.4L406.7,151.3L406.8,151.9L407.7,151.9L408.4,150.9L408.4,151.5L409.5,151.5L408.4,152.0L408.7,152.6L407.2,152.8L407.9,153.6L407.0,153.8L407.2,154.4L408.8,153.9L407.3,155.8L407.0,154.9L406.0,155.6L405.4,155.0L404.5,155.9L404.3,157.2L404.9,157.0L405.2,157.7L405.6,157.1L405.7,158.2L406.7,157.7L405.2,158.9L404.7,158.6L404.6,159.4L403.9,158.5L402.4,159.0L404.2,160.5L381.3,186.4L381.0,187.7L374.5,185.4L371.7,183.4L371.2,181.6L368.8,181.8L367.1,179.4L365.8,179.0L367.3,177.4L366.2,176.1L363.1,175.6L363.0,174.3L362.1,173.8L361.9,172.6L359.7,171.4L359.8,170.2L357.0,169.9L356.5,167.6L353.9,166.4L354.5,164.6L352.0,163.8L351.9,162.5L353.6,162.3L353.7,161.6L351.6,160.7L347.6,161.7L347.4,160.9L346.5,160.4L341.7,160.0L339.9,158.7L340.3,157.4L338.2,155.0L335.2,154.0L331.7,151.5L329.8,148.5L327.8,148.5L327.3,147.2L326.3,146.5L323.6,146.0L324.2,145.0L323.9,144.1L321.6,142.8Z" fill="#e13030" fill-opacity="0.85"/>
    <path d="M649.5,382.9L680.4,350.6L697.0,342.1L704.3,339.8L717.0,356.0L720.7,352.4L721.3,353.4L721.6,356.2L721.5,359.4L724.4,360.1L731.0,357.2L743.2,360.3L762.1,376.7L761.7,378.9L762.0,379.8L763.8,381.1L764.7,383.6L767.8,386.7L771.1,386.0L771.9,387.0L773.1,386.2L774.8,387.7L775.7,386.9L773.5,383.2L774.3,382.3L773.5,381.2L779.5,373.4L775.9,370.9L777.4,369.8L785.5,368.0L785.7,369.3L787.5,368.7L793.3,373.8L793.2,370.5L794.5,370.5L794.8,369.4L796.6,369.0L798.4,370.5L799.4,372.8L800.4,373.0L801.2,371.8L802.1,371.9L803.0,373.3L802.5,375.0L802.9,376.1L800.7,376.4L799.9,375.6L799.4,376.4L799.6,377.8L801.4,378.6L800.8,380.4L804.3,380.6L803.9,382.1L805.1,383.3L804.7,385.5L811.8,391.8L818.2,394.8L823.5,394.6L826.7,392.9L828.7,392.7L830.3,391.2L831.3,391.7L831.8,393.2L832.6,393.3L834.1,392.4L834.8,391.1L836.7,391.0L837.2,390.0L837.4,392.9L839.0,392.0L840.2,392.2L839.7,399.0L840.2,400.0L840.1,402.6L838.9,402.6L838.8,404.0L837.5,402.8L837.0,404.2L837.3,410.4L835.9,413.0L836.0,415.2L835.2,416.7L834.9,420.9L832.3,422.6L831.7,423.7L829.1,424.9L827.9,426.7L824.0,427.7L821.1,425.6L819.2,425.1L817.7,426.0L817.0,429.2L811.7,427.8L806.2,429.1L803.9,428.2L802.2,426.6L799.7,426.4L796.7,424.7L795.0,420.7L795.0,416.0L793.6,413.9L745.2,445.2L744.1,445.1L741.7,443.1L741.5,441.4L740.3,441.3L740.2,440.2L738.3,439.9L737.9,438.3L737.2,438.1L738.1,437.0L736.7,436.4L737.1,436.2L737.1,434.7L736.5,434.1L736.7,433.0L735.5,432.7L735.1,433.1L735.1,431.6L734.1,431.5L732.8,430.1L731.5,430.0L730.6,428.9L729.9,429.1L729.2,427.0L727.6,426.6L726.8,425.2L723.6,423.3L724.0,422.8L722.6,422.2L721.2,420.0L718.3,418.8L717.7,419.1L716.6,417.1L714.7,417.1L713.7,415.3L711.4,414.9L710.6,413.7L710.1,414.0L709.2,413.1L707.3,413.0L706.3,411.1L705.7,411.6L705.3,411.0L704.6,411.4L703.4,411.0L700.2,407.8L699.5,407.6L698.8,406.1L692.5,404.5L684.3,399.1L680.1,398.7L679.6,397.2L678.5,396.6L678.3,394.9L677.2,393.3L673.1,392.8L672.7,392.3L671.1,392.7L665.9,389.0L665.0,387.3L663.9,387.4L662.2,385.0L659.6,385.3L658.0,384.4L655.0,384.9L649.5,382.9Z" fill="#b91c1c" fill-opacity="0.85"/>
    <path d="M389.5,85.2L390.2,84.9L389.8,84.4L391.1,83.2L391.8,80.9L393.7,81.5L394.7,80.9L394.6,80.2L393.3,79.6L393.7,79.2L393.2,78.7L394.1,77.7L393.8,76.9L394.4,76.7L393.7,75.6L395.8,74.4L396.2,73.7L395.8,73.1L396.9,72.9L397.2,71.6L416.1,65.7L417.3,66.6L416.4,69.7L419.3,69.2L420.2,71.8L421.6,73.3L423.4,73.4L425.0,71.8L426.9,72.2L427.4,71.0L428.5,70.4L432.8,70.5L434.1,69.9L434.8,70.4L436.6,69.4L437.2,70.3L439.5,70.8L440.3,70.0L444.2,69.4L444.6,68.4L445.4,68.8L451.2,67.9L451.3,68.8L450.7,69.9L447.9,70.2L446.9,71.9L447.1,73.3L446.7,74.8L448.0,73.9L448.8,76.3L447.8,77.3L448.4,78.6L447.1,80.3L447.5,81.1L449.5,81.1L450.7,80.1L452.3,80.6L453.7,79.8L456.7,79.8L455.9,82.0L457.4,86.0L455.1,87.1L456.8,88.3L457.4,88.1L457.6,89.4L458.5,89.6L458.3,91.9L459.1,92.3L459.0,93.4L459.9,93.8L458.7,94.3L460.1,95.7L459.5,97.1L460.4,97.5L460.1,98.7L461.2,99.1L461.5,100.2L462.9,100.6L462.5,101.8L464.0,103.5L463.6,105.1L465.0,105.5L464.4,106.9L465.1,107.9L464.9,110.3L465.8,111.1L465.5,113.7L464.9,114.4L466.1,114.0L466.3,114.5L465.3,115.2L465.1,116.3L466.9,117.0L465.1,118.8L415.4,147.8L406.0,158.4L405.4,157.6L404.5,157.9L404.9,157.3L404.3,157.5L404.5,156.4L403.9,156.2L403.9,155.9L404.4,156.2L404.5,155.5L404.8,155.7L405.4,154.9L406.0,155.5L407.8,154.9L407.9,154.3L407.1,154.5L406.8,153.3L408.8,151.6L406.7,151.9L406.3,151.2L407.3,150.6L406.0,149.9L405.9,148.9L404.8,148.7L404.1,146.7L405.2,145.8L404.5,145.5L405.0,143.2L402.5,142.0L403.4,141.2L403.9,139.5L403.5,139.0L404.1,137.4L403.7,136.6L403.1,136.1L402.0,136.2L400.8,135.0L397.4,135.2L396.7,134.2L397.6,133.1L397.7,131.7L398.6,130.3L397.9,129.3L398.8,128.8L398.9,127.4L400.0,126.3L400.0,125.1L401.1,124.5L399.7,124.5L398.9,123.5L398.7,121.1L397.2,121.7L397.4,119.4L396.6,117.9L397.1,117.5L396.9,116.2L397.4,115.2L396.6,113.2L396.6,111.3L396.0,110.8L396.4,109.6L395.2,103.8L396.4,103.5L396.7,102.3L395.7,101.4L396.4,99.7L395.3,98.4L396.1,97.5L395.6,96.5L396.2,95.6L394.2,93.3L395.2,91.9L393.5,90.6L394.0,88.2L391.0,87.4L390.4,86.5L390.5,85.7L389.5,85.2Z M404.4,159.1L405.9,158.6L403.8,160.5L402.2,158.9L403.2,158.8L403.5,158.0L404.4,159.1Z" fill="#d92929" fill-opacity="0.85"/>
    <path d="M654.2,240.8L658.9,234.0L662.3,234.4L665.3,235.9L669.7,241.2L673.9,240.7L675.2,242.4L676.9,242.9L681.7,246.6L681.7,244.4L682.7,243.9L683.5,242.3L681.4,237.8L695.4,239.0L697.5,236.9L698.5,236.8L698.9,237.5L699.6,236.8L699.9,235.4L701.2,236.2L701.8,235.1L704.1,234.5L704.9,235.3L717.7,231.5L740.2,228.1L733.2,245.3L736.0,247.0L757.8,267.8L760.5,265.5L767.7,264.6L767.9,263.9L771.7,262.2L774.9,261.8L774.4,263.4L772.2,263.8L771.6,265.3L772.9,266.2L773.9,265.1L774.4,265.3L772.6,268.0L775.4,269.0L775.5,270.4L776.5,270.0L775.5,271.6L777.5,273.8L776.3,275.9L777.3,276.5L775.2,276.7L774.3,278.5L773.1,279.0L773.4,281.0L771.6,280.0L771.7,281.3L769.9,281.9L771.1,282.7L771.1,283.4L770.4,283.9L770.9,285.0L772.6,286.4L772.2,288.2L772.9,288.5L773.7,287.9L775.0,288.4L775.1,289.0L774.2,289.2L774.7,290.1L773.7,290.2L774.3,290.8L773.1,291.5L772.8,292.9L774.3,293.0L773.9,294.1L774.6,293.8L774.8,294.2L772.8,294.7L773.3,295.5L772.3,296.4L772.5,297.3L772.0,298.0L773.5,300.4L773.4,301.8L774.8,302.3L775.1,303.1L774.2,303.7L773.4,303.1L774.2,305.1L773.8,305.5L774.4,305.7L773.7,306.2L773.4,307.5L773.8,309.3L773.0,309.3L772.1,311.0L773.0,312.9L774.4,313.5L774.9,314.5L774.3,315.3L774.9,316.1L775.0,318.4L776.0,319.3L777.1,319.2L777.9,320.4L776.8,320.7L777.5,321.5L777.2,322.6L777.5,323.5L778.2,324.0L777.2,324.2L778.0,325.8L776.8,326.9L777.3,327.6L776.7,328.0L777.0,328.7L776.3,329.0L776.8,329.7L775.1,331.1L775.2,331.8L774.4,331.7L774.5,332.6L773.8,332.2L772.2,332.5L768.3,329.0L769.0,327.3L768.5,326.6L765.7,328.0L765.2,328.9L764.5,328.8L763.3,330.1L760.2,329.3L760.3,328.0L759.1,327.1L758.5,329.2L756.7,327.7L756.3,329.1L754.7,330.0L754.3,329.5L755.0,328.0L753.5,326.0L752.6,327.1L753.6,328.5L753.3,328.9L751.7,328.3L751.2,326.5L750.1,327.9L749.2,327.0L747.4,329.1L746.8,328.7L747.3,327.5L743.2,326.5L742.2,325.2L740.3,326.4L739.6,325.7L740.6,324.1L738.9,324.2L738.2,322.5L733.6,320.8L733.3,319.4L732.1,318.3L728.2,319.6L725.4,319.1L725.1,317.2L726.0,315.4L725.7,314.8L724.5,314.4L723.9,315.9L721.9,316.1L719.0,312.8L717.0,311.8L713.3,311.4L713.0,311.1L713.6,309.9L711.0,308.8L711.9,307.3L711.6,306.0L708.0,304.7L708.3,302.3L709.5,301.8L709.9,300.6L706.4,298.8L708.2,297.2L708.5,295.3L703.8,286.1L703.7,283.9L702.3,281.4L700.6,279.9L699.3,280.3L698.1,279.2L695.5,278.3L690.2,270.0L682.6,263.6L677.3,262.1L671.0,261.3L665.7,262.2L663.7,258.3L663.2,258.3L659.2,252.5L659.8,250.9L661.3,249.2L659.4,244.6L656.9,243.9L654.2,240.8Z" fill="#d92929" fill-opacity="0.85"/>
    <path d="M544.1,288.8L545.8,286.5L545.6,285.9L547.6,281.9L548.5,281.5L554.5,274.2L557.3,267.7L558.2,267.5L558.3,266.4L559.3,265.8L559.7,263.5L562.3,262.7L563.0,261.7L562.9,260.3L567.2,255.7L567.8,253.6L566.8,252.5L567.0,251.5L565.8,250.2L566.4,249.2L566.3,248.2L567.9,247.4L568.9,245.9L570.1,245.8L572.4,247.3L574.5,245.4L574.0,246.5L574.3,247.2L577.4,246.7L580.2,247.9L581.6,247.3L582.0,247.8L581.7,248.4L582.4,248.8L583.3,248.4L583.9,246.9L587.5,246.3L590.0,244.3L593.9,247.1L596.9,247.2L599.2,248.9L600.0,250.6L604.2,252.5L606.1,252.7L608.3,256.5L610.8,257.1L611.9,259.0L612.8,258.0L613.7,258.3L616.7,261.7L620.7,263.0L622.1,265.3L626.3,265.2L628.2,266.9L631.1,265.2L633.2,266.4L617.0,304.1L616.7,306.0L603.5,318.5L582.8,312.2L575.1,308.0L572.9,308.2L567.3,303.1L563.2,286.5L557.0,286.2L544.4,289.2L544.1,288.8Z M581.3,248.4L581.6,248.3L581.4,248.1L581.3,248.4Z" fill="#cc2222" fill-opacity="0.85"/>
    <path d="M508.3,112.5L510.0,43.8L566.5,46.2L577.9,71.4L577.7,75.6L579.8,75.7L581.3,78.9L586.3,96.5L589.7,96.1L590.5,98.2L592.2,99.3L592.5,100.2L593.1,100.1L585.7,108.9L581.8,115.1L575.6,144.7L574.4,149.3L572.6,153.1L570.3,163.3L569.0,164.1L568.5,166.2L567.1,163.7L566.1,163.7L565.6,163.0L564.0,164.3L563.2,162.1L562.4,162.5L560.7,161.7L560.5,160.7L558.2,159.1L557.8,157.4L556.4,155.4L555.5,155.6L555.1,153.7L553.7,152.4L550.8,152.4L550.7,150.9L549.4,150.3L548.7,150.9L546.6,149.8L545.1,149.9L540.9,146.1L539.9,146.3L537.8,143.8L536.3,143.4L536.1,142.2L534.3,141.9L533.9,141.6L534.6,140.8L534.7,139.3L534.2,138.5L532.7,138.5L533.1,137.1L532.1,137.0L532.4,136.3L531.4,134.8L531.6,133.5L529.0,133.6L527.6,131.4L527.4,132.5L526.6,132.6L524.1,128.1L523.4,127.9L523.7,126.8L521.4,125.3L520.3,126.1L520.4,124.9L517.8,123.1L517.6,122.0L518.7,122.0L518.5,121.3L517.1,121.4L516.8,120.1L513.7,115.9L511.0,114.2L509.5,111.9L508.3,112.5Z" fill="#bf1e1e" fill-opacity="0.85"/>
    <path d="M769.9,282.0L771.6,281.3L771.6,280.0L773.3,280.8L773.1,279.0L774.3,278.5L775.1,276.6L777.1,276.6L776.2,275.9L777.5,273.8L775.5,271.6L776.1,270.5L775.2,269.9L775.5,269.1L772.5,268.1L774.4,265.3L773.9,265.1L772.9,266.2L771.8,265.9L771.6,265.1L772.2,263.8L774.5,263.3L775.0,262.1L774.2,261.2L774.4,259.9L776.9,261.4L780.9,261.7L797.5,248.0L797.3,259.2L809.7,265.4L811.4,263.8L814.0,265.3L823.7,265.6L824.6,266.1L826.7,269.0L828.1,273.7L832.7,275.0L834.1,277.2L834.0,279.0L834.8,282.2L835.6,283.1L845.8,280.6L845.8,283.8L846.9,286.9L847.2,291.0L849.7,290.1L865.3,280.0L872.5,279.9L876.9,272.0L878.3,273.7L880.2,274.2L881.2,275.8L883.6,277.3L885.7,277.0L885.7,277.9L887.4,277.9L889.4,280.0L891.6,280.2L892.9,281.1L893.3,283.0L894.6,283.8L869.9,298.6L856.8,307.5L854.5,307.7L844.6,313.6L834.7,320.5L832.0,324.1L811.3,327.7L811.2,331.9L812.0,338.1L805.0,338.9L805.3,337.0L806.4,336.4L805.6,333.7L802.6,333.8L801.6,338.5L797.7,338.4L795.6,342.5L794.6,346.3L788.5,352.4L786.1,351.1L785.1,348.8L783.3,348.2L784.2,346.6L783.8,345.5L781.1,345.3L779.3,344.4L778.2,342.2L778.7,340.9L777.3,340.7L776.6,339.6L775.1,338.9L774.8,337.1L773.0,335.1L773.5,334.3L772.7,333.8L774.4,332.6L774.4,331.6L775.0,331.7L774.9,331.1L776.0,330.6L775.7,330.2L776.6,329.7L776.1,328.9L776.8,328.7L776.6,327.8L777.3,327.6L776.7,326.9L777.9,325.8L777.1,324.1L778.1,324.0L777.0,322.7L777.5,321.6L776.7,320.5L777.7,320.3L777.1,319.3L776.0,319.4L775.0,318.5L774.8,316.1L774.2,315.3L774.8,314.4L774.4,313.5L773.0,312.9L772.1,310.9L773.0,309.2L773.8,309.3L773.4,307.5L774.1,305.8L773.5,305.4L774.1,305.0L773.4,302.7L774.2,303.7L775.1,303.0L773.4,301.8L773.5,300.3L772.0,298.0L772.5,297.3L772.2,296.5L773.2,295.5L772.6,294.7L774.2,294.6L773.8,294.2L774.2,293.1L772.8,293.2L773.0,291.6L774.0,290.9L773.7,290.3L775.0,288.5L773.8,287.9L772.9,288.6L772.1,288.2L772.5,286.4L770.9,285.0L770.3,283.8L771.0,283.4L771.0,282.7L769.9,282.0Z M779.6,265.6L779.9,265.1L779.4,265.3L779.6,265.6Z M774.6,293.9L774.4,294.4L774.8,294.2L774.6,293.9Z" fill="#e53333" fill-opacity="0.85"/>
    <path d="M570.3,163.3L572.6,153.1L574.4,149.3L575.6,144.7L581.8,115.1L585.7,108.9L593.1,100.1L595.6,101.5L596.7,101.3L598.0,100.1L599.2,102.3L600.5,102.0L601.6,102.9L603.0,102.3L604.2,102.6L604.8,104.9L605.6,105.7L605.4,106.6L607.7,107.8L610.9,107.1L612.2,105.7L614.1,105.1L617.7,107.6L621.4,108.6L622.9,106.7L623.7,109.0L625.0,107.1L626.1,107.2L628.6,109.0L631.6,109.3L631.3,111.3L631.9,111.1L632.3,112.0L635.7,114.7L634.9,116.4L630.7,119.7L631.8,120.8L633.7,120.3L633.7,122.0L635.3,123.0L636.3,126.2L636.0,127.8L636.4,130.1L631.5,133.6L630.5,135.8L632.2,137.7L634.9,137.1L636.2,138.2L636.2,147.3L638.2,151.6L640.2,152.6L642.5,155.6L642.2,161.5L640.7,166.4L641.9,169.2L641.0,171.4L640.6,176.1L641.6,181.5L641.3,183.3L639.8,183.7L638.6,182.8L637.9,183.2L637.7,184.6L636.7,184.0L635.5,184.8L633.8,183.4L632.8,184.1L631.1,184.2L621.8,193.1L620.1,191.7L619.9,190.6L620.5,189.7L619.1,189.4L620.0,188.1L619.7,186.7L615.6,183.3L613.9,182.8L611.6,179.6L609.8,179.4L609.0,177.2L607.4,177.8L606.9,176.8L605.4,176.7L604.8,175.5L604.0,175.7L603.0,174.1L602.4,174.1L602.1,172.7L599.8,171.7L599.1,172.0L599.2,170.7L597.0,171.7L596.3,170.9L595.4,171.1L595.2,170.5L593.1,171.1L592.7,172.0L590.0,170.1L589.0,170.3L587.5,168.6L586.7,169.5L585.1,168.6L584.3,168.9L584.0,168.1L579.2,167.5L578.5,166.1L577.1,166.6L575.9,164.7L574.6,164.7L574.1,163.5L573.8,164.0L572.4,163.6L571.8,162.2L570.3,163.3Z" fill="#e02a2a" fill-opacity="0.85"/>
    <path d="M860.1,381.6L873.5,352.0L878.1,340.3L879.3,339.7L881.1,336.9L877.7,327.7L886.1,319.3L888.0,319.2L891.0,317.6L897.6,304.4L899.1,304.6L901.0,303.1L902.3,304.5L904.3,304.9L910.4,314.3L919.4,314.4L922.5,318.5L926.7,318.6L928.6,320.3L930.2,318.5L935.8,318.5L937.3,317.8L937.5,319.7L960.3,326.2L964.2,324.5L966.6,325.1L969.4,324.4L970.8,322.8L973.2,321.4L976.7,321.1L978.6,319.8L978.9,317.8L981.6,317.7L982.6,318.4L984.4,318.4L986.2,320.8L987.7,320.4L987.5,320.9L988.8,321.5L989.5,323.1L989.1,323.6L990.0,325.3L986.6,326.4L985.2,330.1L980.5,336.3L977.5,338.9L974.5,344.0L973.2,347.7L973.0,351.5L969.3,361.8L970.7,365.7L970.4,366.6L962.6,373.6L960.5,377.4L952.3,382.7L952.4,383.5L944.8,392.3L943.9,396.6L942.7,397.3L939.0,402.8L937.6,406.2L934.2,408.8L930.5,413.3L929.8,417.0L931.1,418.6L930.4,419.8L925.1,416.5L923.5,417.0L922.2,416.4L920.9,416.7L918.5,414.7L917.3,414.8L917.5,413.9L916.4,413.7L916.4,412.4L915.4,411.9L915.4,410.8L913.2,408.3L912.4,405.9L911.7,406.2L910.9,405.3L909.9,406.3L908.8,406.3L907.8,404.4L904.0,402.6L903.4,401.3L901.0,400.3L900.9,399.6L900.0,399.2L899.9,397.3L897.1,395.9L897.2,395.2L898.7,395.0L898.8,394.0L897.4,393.8L896.7,392.2L894.3,390.1L893.0,390.8L893.1,389.9L891.8,389.8L891.0,388.1L887.8,385.5L886.9,385.8L886.5,384.6L882.8,381.2L881.6,380.8L881.0,381.5L878.8,381.4L878.3,380.1L877.4,379.6L877.0,379.9L877.5,381.0L876.9,382.0L876.2,381.8L876.1,380.5L874.9,380.0L873.6,381.3L873.0,379.8L871.7,380.8L871.0,379.7L870.1,380.8L868.9,379.7L863.8,379.6L862.9,381.0L861.6,380.4L861.3,381.8L861.0,381.1L860.1,381.6Z" fill="#dc2626" fill-opacity="0.85"/>
    <path d="M629.8,93.3L630.9,89.7L632.6,86.3L631.2,83.8L631.1,82.7L631.8,81.6L630.5,76.9L630.7,75.8L633.2,74.0L633.3,73.2L643.6,73.3L644.7,55.6L650.7,50.0L705.8,53.2L703.7,53.6L702.8,56.0L705.0,57.8L706.0,61.0L705.4,62.3L702.9,63.5L701.9,65.6L701.8,70.4L704.4,73.8L722.2,61.4L726.9,67.6L726.9,69.8L728.0,70.7L727.0,73.4L728.2,74.9L728.4,76.1L727.4,79.0L726.4,79.5L727.2,80.5L728.4,80.0L727.7,81.7L729.0,83.1L729.2,84.6L730.3,84.5L729.8,85.6L730.8,88.6L730.5,89.5L731.4,90.1L732.2,89.7L732.3,91.6L733.1,92.5L732.9,95.8L733.7,98.3L733.1,100.5L731.4,102.4L731.2,108.0L731.4,110.0L733.2,111.6L733.4,113.0L732.2,114.9L728.4,117.0L728.2,118.4L632.2,118.2L634.9,116.3L636.3,113.2L634.8,111.9L633.8,109.5L633.1,104.5L632.1,103.0L633.5,99.9L632.3,97.8L632.9,95.6L630.5,94.7L629.8,93.3Z" fill="#cc2222" fill-opacity="0.85"/>
  </g>
  <rect width="1440" height="720" fill="url(#vignette)"/>
</svg>